<svg xmlns="http://www.w3.org/2000/svg" viewBox="0 0 725.13 841.56"><defs><style>.cls-1{fill:#1c1c1b;}.cls-2{fill:#ced8d2;}.cls-3{opacity:0.2;}.cls-4{opacity:0.45;}.cls-5{fill:#ccbca8;}.cls-6{fill:#b79765;}.cls-7{fill:#fff;}.cls-8{opacity:0.38;}.cls-9{fill:#f6d2a2;}.cls-10{fill:#b7a38d;}.cls-11{fill:#1d1d1b;}.cls-12{opacity:0.19;}</style></defs><title>BoyerFlatScene2</title><g id="Capa_10" data-name="Capa 10"><path class="cls-1" d="M764.83,322.58A357.59,357.59,0,0,0,608.13,193.31l.36-11,36.64-58.43a2.5,2.5,0,0,0-2.34-3.82l-24.27,2.17,11.87-36.4a2.5,2.5,0,0,0-1.76-3.2l-134.5-34a2.5,2.5,0,0,0-3.05,1.89l-21.16,96.39L429.15,79.7a2.51,2.51,0,0,0-2.31-1.2L276.83,89a2.5,2.5,0,0,0-2.15,3.41l3.72,9.52-17.26-4.35a2.5,2.5,0,0,0-2.5,4.06l53.29,61.29V202.7a3.52,3.52,0,0,0-3.42-.16,357.58,357.58,0,1,0,456.3,120Z" transform="translate(-105.77 -43.5)"/><path class="cls-1" d="M468.33,885.06a362.61,362.61,0,0,1-162-687q.32-.16.65-.29v-33l-52.07-59.88a7.5,7.5,0,0,1,7.49-12.19l7.84,2-.18-.47A7.5,7.5,0,0,1,276.48,84l150-10.5a7.49,7.49,0,0,1,6.93,3.59l34.28,56.48,18.48-84.19a7.5,7.5,0,0,1,9.15-5.67l134.51,34a7.5,7.5,0,0,1,5.29,9.6l-9.52,29.2L642.34,115a7.5,7.5,0,0,1,7,11.45l-35.92,57.28-.2,6.29a362.56,362.56,0,0,1-144.91,695ZM310,207.39a352.51,352.51,0,1,0,296.15-9.48L603,196.57l.51-15.82,34.68-55.31-26.8,2.39L624.8,86.77,495.4,54.06,472.12,160.13,425.66,83.6,280.58,93.76l6,15.39-18.95-4.78,49.29,56.69v50.56Z" transform="translate(-105.77 -43.5)"/></g><g id="background_color" data-name="background color"><path class="cls-2" d="M606.14,196.29C733.21,250,822.37,375.85,822.37,522.5c0,195.53-158.51,354-354,354s-354-158.51-354-354c0-138.66,79.71-258.7,195.81-316.8" transform="translate(-105.77 -43.5)"/></g><g id="background_shadows" data-name="background shadows"><g class="cls-3"><polygon points="655.41 575.12 531.59 650.5 494.43 631.06 496.06 597.66 556.54 578.75 655.41 575.12"/></g><g class="cls-3"><path d="M168.51,577.42l-52.39,5.17s20.59,65.66,26.2,78.18S178.74,727,185.62,737.5s37.45,40.32,37.45,40.32L383.61,705Z" transform="translate(-105.77 -43.5)"/></g></g><g id="Capa_9" data-name="Capa 9"><path class="cls-1" d="M770.15,537.19c-5.12,0-9.59-.48-13-1.76a2.5,2.5,0,0,1,1.78-4.67c7.58,2.88,23.89.83,38.27-1,8.92-1.12,17.34-2.18,23.83-2.18a2.5,2.5,0,0,1,0,5c-6.19,0-14.46,1-23.21,2.14C788.21,535.95,778.35,537.19,770.15,537.19Z" transform="translate(-105.77 -43.5)"/><path class="cls-1" d="M116.11,585.09a2.5,2.5,0,0,1-.58-4.93c12-2.85,23.67-3.07,36.58-3.07a2.5,2.5,0,0,1,0,5h0c-12.64,0-24,.21-35.42,2.93A2.48,2.48,0,0,1,116.11,585.09Z" transform="translate(-105.77 -43.5)"/><g class="cls-4"><path class="cls-1" d="M307.84,758.67h-4.67a2.5,2.5,0,0,1,0-5h4.67a2.5,2.5,0,0,1,0,5Z" transform="translate(-105.77 -43.5)"/></g><g class="cls-4"><path class="cls-1" d="M348.51,782.67h-6a2.5,2.5,0,1,1,0-5h6a2.5,2.5,0,0,1,0,5Z" transform="translate(-105.77 -43.5)"/></g><g class="cls-4"><path class="cls-1" d="M491.18,824.67h-2.67a2.5,2.5,0,1,1,0-5h2.67a2.5,2.5,0,1,1,0,5Z" transform="translate(-105.77 -43.5)"/></g><g class="cls-4"><path class="cls-1" d="M546.51,806h-2.67a2.5,2.5,0,0,1,0-5h2.67a2.5,2.5,0,0,1,0,5Z" transform="translate(-105.77 -43.5)"/></g><g class="cls-4"><path class="cls-1" d="M693.18,678.67a2.5,2.5,0,0,1-1-4.78,9.8,9.8,0,0,1,4.46-.89,2.5,2.5,0,0,1,2.41,2.59,2.53,2.53,0,0,1-2.59,2.41,4.85,4.85,0,0,0-2.2.44A2.49,2.49,0,0,1,693.18,678.67Z" transform="translate(-105.77 -43.5)"/></g><g class="cls-4"><path class="cls-1" d="M671.17,663.33a2.5,2.5,0,0,1-.21-5l3.06-.29c1.43-.14,2.86-.28,4.3-.38a2.5,2.5,0,0,1,.36,5c-1.4.1-2.79.24-4.18.37l-3.13.29Z" transform="translate(-105.77 -43.5)"/></g><g class="cls-4"><path class="cls-1" d="M743.84,654h-6a2.5,2.5,0,0,1,0-5h6a2.5,2.5,0,0,1,0,5Z" transform="translate(-105.77 -43.5)"/></g><g class="cls-4"><path class="cls-1" d="M787.18,579.33h-8a2.5,2.5,0,0,1,0-5h8a2.5,2.5,0,0,1,0,5Z" transform="translate(-105.77 -43.5)"/></g><g class="cls-4"><path class="cls-1" d="M628.13,800.15a18.45,18.45,0,0,1-6.49-1,2.5,2.5,0,1,1,1.73-4.69c2.16.8,4.77.7,7.54.59,1,0,2-.07,2.94-.07a2.5,2.5,0,0,1,0,5h-.09c-.87,0-1.75,0-2.65.07S629.13,800.15,628.13,800.15Z" transform="translate(-105.77 -43.5)"/></g><g class="cls-4"><path class="cls-1" d="M302.11,802.76a25.61,25.61,0,0,1-6.21-.84,2.5,2.5,0,0,1,1.22-4.85,18.38,18.38,0,0,0,6.44.61,2.5,2.5,0,1,1,.57,5A17.58,17.58,0,0,1,302.11,802.76Z" transform="translate(-105.77 -43.5)"/></g><g class="cls-4"><path class="cls-1" d="M354.79,816.06a18.53,18.53,0,0,1-8-1.64,2.5,2.5,0,0,1,2.15-4.51,14.84,14.84,0,0,0,7.42,1.1,2.5,2.5,0,0,1,.35,5Q355.72,816.06,354.79,816.06Z" transform="translate(-105.77 -43.5)"/></g><g class="cls-4"><path class="cls-1" d="M239.84,748.67h-5.33a2.5,2.5,0,1,1,0-5h5.33a2.5,2.5,0,0,1,0,5Z" transform="translate(-105.77 -43.5)"/></g></g><g id="COLOR"><path class="cls-5" d="M636.94,672.51l.8-29.52,123.44-24.37V376.75L670.5,347.84,601.4,325l3.79-143.43L643,122.5,615,125,627.37,87,493.51,51,468.33,152.25,427,81,277,91.5l5.55,14.05L262,101.71,313.76,162l.69,106.83L247.51,274l-11.2-.75,8.12,48.44-1.59,103.56v2.92l-42.58,5.43V470.5l-50.82,8v45l-4.36,2,12.4,36-2,100.22,95.38,63.2c.75.5,131-19.64,131-19.64Z" transform="translate(-105.77 -43.5)"/><path class="cls-6" d="M488,791.08c1.73.41,3.46.83,5.22,1.13,6.25,1.07,11.6,2.26,18.06,1.63,15.87-1.55,33.24-1.7,48.46-6.84,9.3-3.14,17.6-8.61,25.79-14l21.6-14.3c7.14-4.73,14.35-9.51,20.21-15.76,3.07-3.27,6-7.1,10.28-8.44,3.42-1.07,6.91,0,10.21-1s6.54-3.75,8.88-6.16a28.13,28.13,0,0,0,8.11-19.64c-.06-4.51-1.64-9.52-5.69-11.52-5.15-2.55-8.9,1.34-12.27,4.65-2.85,2.8-5.23,7.7-7.65,2-1.27-3-1-5.72-1.82-8.82-2-7.49-2.87-17.1-6.28-24.09s-13.47-5.69-19.9-5c-3.27.35-6.28,2.14-9.35,2.57-5.08.73-10.24-.11-15.36.77-10,1.71-20.73,3.63-30.14,7.61-10.29,4.35-19,11.78-28.48,17.55-6.62,4-8.49,8.54-12.51,14.63-2.18,3.29-2.85,4.21-7.09,4.81a13.21,13.21,0,0,0-7.4,3,133.18,133.18,0,0,0-20,17.45A147.06,147.06,0,0,0,464.33,755c-2.47,4-4.95,7.94-7.57,11.93-2.18,3.31-7.21,7.6-8.2,11.21,4.48.44,9.38,4.8,13.63,6.63,4,1.74,8.69,4.48,13,5.08,2.75.39,5.59-.06,8.33.34C485,790.4,486.49,790.73,488,791.08Z" transform="translate(-105.77 -43.5)"/><path class="cls-6" d="M577.72,629.6q1.12-1.14,2.21-2.32c2.31-2.5,6.69-5.41,7.4-8.85a12.6,12.6,0,0,0-.2-4.62c-.49-2.9-4-13.59-1.07-15.25a6.65,6.65,0,0,1,2.48-.54c4.88-.6,8.84-4.32,11.51-8.45,7.67-11.89,6.78-30.25-1.48-41.48l-5.77-7.85a42.81,42.81,0,0,0-6.15-7.19,24.19,24.19,0,0,0-19.1-5.79c-5.24.6-10.62,1.84-15.71.44-6.12-1.68-10.55-6.81-15.62-10.61-11.44-8.57-26.51-10.51-40.81-10.52a6.36,6.36,0,0,1-3.58-.7,7.41,7.41,0,0,1-2-2.67,19.85,19.85,0,0,0-6.55-6.83,7,7,0,0,0-4.88-1.36,8.49,8.49,0,0,0-3.73,2.19c-2.45,2.07-5.11,4.3-6.63,7.19-1.34,2.55-.75,6.11-3.41,7.46-2.07,1.05-6.25,1-8.69,1.86q-6,2.11-11.86,4.63c-11.08,4.77-21.65,10.62-32.2,16.46-9.48,5.25-19.69,11.33-23.34,21.53-.76,2.13-2.21,3-3.16,5a22.16,22.16,0,0,0-23.17,2.28,10.31,10.31,0,0,0-4.1,5.86,10.86,10.86,0,0,0,1.44,6.8,28,28,0,0,0,16.12,13.78,4.73,4.73,0,0,1,2.38,1.28c1.42,1.8-.31,4.55-1,6.29a16.18,16.18,0,0,0-1.49,6.8v50.12c0,5.83.09,12,3.07,17,24.4.82,49.14-5.34,73.43-7.85,10.86-1.13,21.79-1.25,32.68-2,13.67-1,27.24-2.89,40.81-4.83,6.15-.88,12.4-1.86,18.23-4.11a93,93,0,0,0,25.29-15.26A110.36,110.36,0,0,0,577.72,629.6Z" transform="translate(-105.77 -43.5)"/><path class="cls-7" d="M551.14,648.24a67.44,67.44,0,0,1-9.66,4.38,66.76,66.76,0,0,1-13.13,2.49q-36.59,4.39-73.27,7.93c-22.21,2.14-43.57,6.23-65.86,7.06a40.19,40.19,0,0,0-15.61,3.34c-.16,3.1-.3,6.31.75,9.23s3.64,5.53,6.75,5.62a31.17,31.17,0,0,0,1.32,12.18,62.17,62.17,0,0,0,3.63,8.47c2.84,5.82,5.29,12.19,8.67,17.71,2.63,4.3,5.48,8.34,6.8,13.35,1.23,4.67,3.06,6.19,6.32,9.51,3.59,3.65,7.3,7.54,11,11.31,5.46,5.63,10.9,9.18,18,12.77,1.93,1,3.89,1.83,5.74,2.84,3.09,1.68,3.64,2.29,6.11-.71,3.95-4.81,7.13-10.25,11.23-14.92,3.41-3.88,6.75-7.86,9.78-12,4.73-6.42,9.78-12.61,14.9-18.73,4.32-5.16,10.41-8.76,15-13.52,2.82-2.94.35-3.06-.08-7.15-.74-7,2.48-24.26,12.5-18.55,3.65,2.08,4.47,6.22,7.77,7.92,1-2.83,4.22-5.08,6.75-6.63,4.12-2.52,7.95-5.48,12.35-7.42,6.86-3,13.52-6.36,20.46-9.1,7.16-2.83,14.43-6.14,22-7.72,8.37-1.74,16.44-1.92,25-2.34,6.53-.32,13.08-.12,19.43-1.12,0-1.92-3.18-4.81-4.48-6.45a70.75,70.75,0,0,0-5.79-6.52c-4.4-4.28-8.58-.64-12.84,2.51s-15.29,11-19.27,3.36c-4.43-8.46,2.81-15.4,10.76-15.85,4.41-.25,7.76.45,11.09,3.34,2.94,2.54,5,6.21,8.85,7.3,3.25-5.74-.65-13.37-5.28-16.92-5-3.86-11-3.82-15.33-8.71-1.53-1.75-3-6-5-7-2.57-1.27-4.3,2.26-6,4.44-4,5.2-7.54,10.85-13.37,14.23S557.26,645.07,551.14,648.24Z" transform="translate(-105.77 -43.5)"/><g class="cls-8"><path class="cls-7" d="M548.55,520.1a25.14,25.14,0,0,1,6.58-6.75,23.42,23.42,0,0,1,7.31-2.95,40.69,40.69,0,0,1,35.7,8.76c11.42,10,15.88,25.19,17.67,39.75.86,7,2.84,12.83,1.86,20a46.19,46.19,0,0,1-9.29,22.14,24.82,24.82,0,0,1-7.23,6.57c-4.26,2.37-9.29,2.79-14.15,3.17l-12.41,1c-3,.23-6.28.43-9-1-2.14-1.16-3.63-3.21-5-5.2C543.23,581.15,529,547.74,548.55,520.1Z" transform="translate(-105.77 -43.5)"/></g><g class="cls-8"><path class="cls-7" d="M423.16,562.28a25.14,25.14,0,0,1,6.58-6.75c17.24-11.2,40.27-11.29,59.15-4.76,7.48,2.59,15,6.48,19.15,13.23,2.19,3.57,3.27,7.7,5.06,11.48,2.78,5.88,5.22,8.87,5.62,15.37.35,5.59,1.06,11.13,1.07,16.75,0,10.38-1.67,22-10.26,29-9.82,7.93-21.24,14.51-33.77,16-11.55,1.37-23.07-1.78-33.34-6.94-4.59-2.31-11.26-5.26-14.7-9.17-2.83-3.22-4.69-8.71-6.44-12.64C412.37,603.93,410,580.92,423.16,562.28Z" transform="translate(-105.77 -43.5)"/></g><path class="cls-9" d="M521.44,619.75a4.06,4.06,0,0,0,.1,2.17,3.59,3.59,0,0,0,1.47,1.52,10.39,10.39,0,0,0,11.8-.66c2.25-1.82,3.66-4.55,6-6.22,4.47-3.15,10.66-1.55,15.94-3a8.15,8.15,0,0,0,5.21-3.66c1.57-2.92.15-6.82-2.56-8.74s-6.3-2.16-9.56-1.52a7.14,7.14,0,0,0-2.58.94c-.5.33-.92.76-1.44,1.07a7.24,7.24,0,0,1-2.14.74,91,91,0,0,1-9.6,2.15c-1.8.21-4-.33-5.66.51C524.25,607.22,522.06,615.55,521.44,619.75Z" transform="translate(-105.77 -43.5)"/><path class="cls-1" d="M539.69,595.19a16.74,16.74,0,0,0-5.23,2.53,7.4,7.4,0,0,0-2.66,3.05,2.77,2.77,0,0,0-.21,1.58,3,3,0,0,0,1.52,1.83,8.09,8.09,0,0,0,4.66.9,34.56,34.56,0,0,0,4.74-.86,12.39,12.39,0,0,0,4.27-1.41,3.67,3.67,0,0,0,1.78-3.83,4.43,4.43,0,0,0-2.74-2.55,12.88,12.88,0,0,0-7.51-.78" transform="translate(-105.77 -43.5)"/><path class="cls-7" d="M538.59,620.55a4.57,4.57,0,0,0,.24,1.64c.34,1.06,2.86,5.74,4,6.17,3.37,1.25,12-3.91,12-7.67-.11-7-5.46-6-10.54-4.6C541.69,616.81,538.73,617.93,538.59,620.55Z" transform="translate(-105.77 -43.5)"/><path class="cls-6" d="M511.18,690.5c-9.54-4.09-12.13,7.26-11.68,14.67.27,4.56,1.43,7.6,6.67,7.33,4.82-.25,10.48-4.16,12.43-8.64S516.34,693.51,511.18,690.5Z" transform="translate(-105.77 -43.5)"/><path class="cls-6" d="M601.84,640.83c-4.64-2.27-18.77,2-20.76,7.33-5.05,13.47,13.34,13.65,20.77,9.07C608.25,653.3,614.29,646.82,601.84,640.83Z" transform="translate(-105.77 -43.5)"/><polygon class="cls-10" points="261.69 395.02 182.17 404.84 135.41 383.03 140.61 281.16 130.54 229.75 142.41 232.33 236.08 222.66 247.41 240.66 251.49 239.66 264.08 210.62 310.13 222.66 306.47 236.45 312.74 236 302.08 275.33 302.33 355.11 274.9 357.33 280.37 390.09 254.85 381.34 261.69 395.02"/></g><g id="DETAILS"><path class="cls-11" d="M652,604.19a1.5,1.5,0,0,1-.3-3l27.16-5.51a1.5,1.5,0,0,1,.6,2.94l-27.15,5.51A1.5,1.5,0,0,1,652,604.19Z" transform="translate(-105.77 -43.5)"/><path class="cls-11" d="M656.45,629.7a1.5,1.5,0,0,1-1.43-1c-2.88-8.79-3.75-17.24-4.47-25.85a1.5,1.5,0,0,1,1.37-1.62,1.52,1.52,0,0,1,1.62,1.37c.7,8.42,1.55,16.68,4.33,25.16a1.5,1.5,0,0,1-1.43,2Z" transform="translate(-105.77 -43.5)"/><path class="cls-11" d="M656.44,629.7a1.5,1.5,0,0,1-.27-3c9.22-1.72,19.79-3.64,28.25-4.79a1.5,1.5,0,0,1,.41,3c-8.4,1.15-18.92,3.05-28.11,4.77Z" transform="translate(-105.77 -43.5)"/><path class="cls-11" d="M684.63,624.91a1.5,1.5,0,0,1-1.41-1c-1.87-5.22-2.81-11.14-3.73-16.87-.54-3.4-1.06-6.61-1.74-9.53a1.5,1.5,0,0,1,2.92-.68c.7,3,1.23,6.29,1.78,9.74.89,5.59,1.82,11.37,3.59,16.33a1.5,1.5,0,0,1-1.41,2Z" transform="translate(-105.77 -43.5)"/><path class="cls-11" d="M683.75,598.95a1.5,1.5,0,0,1-.3-3l27.16-5.51a1.5,1.5,0,1,1,.6,2.94l-27.15,5.51A1.5,1.5,0,0,1,683.75,598.95Z" transform="translate(-105.77 -43.5)"/><path class="cls-11" d="M688.15,624.45a1.5,1.5,0,0,1-1.43-1c-2.88-8.79-3.75-17.24-4.47-25.85a1.5,1.5,0,0,1,1.37-1.62,1.52,1.52,0,0,1,1.62,1.37c.7,8.42,1.55,16.68,4.33,25.16a1.5,1.5,0,0,1-1.43,2Z" transform="translate(-105.77 -43.5)"/><path class="cls-11" d="M688.15,624.45a1.5,1.5,0,0,1-.27-3c9.21-1.72,19.77-3.64,28.25-4.79a1.5,1.5,0,0,1,.41,3c-8.42,1.15-18.93,3.06-28.11,4.77Z" transform="translate(-105.77 -43.5)"/><path class="cls-11" d="M716.33,619.67a1.5,1.5,0,0,1-1.41-1c-1.87-5.22-2.81-11.14-3.73-16.87-.54-3.4-1.06-6.61-1.74-9.53a1.5,1.5,0,1,1,2.92-.68c.7,3,1.23,6.29,1.78,9.74.89,5.59,1.82,11.37,3.59,16.33a1.5,1.5,0,0,1-1.41,2Z" transform="translate(-105.77 -43.5)"/><path class="cls-11" d="M715.47,593.5a1.5,1.5,0,0,1-.3-3L742.33,585a1.5,1.5,0,0,1,.6,2.94l-27.16,5.51A1.49,1.49,0,0,1,715.47,593.5Z" transform="translate(-105.77 -43.5)"/><path class="cls-11" d="M719.87,619a1.5,1.5,0,0,1-1.43-1c-2.88-8.79-3.75-17.24-4.47-25.85a1.5,1.5,0,0,1,3-.25c.7,8.42,1.55,16.68,4.33,25.16a1.5,1.5,0,0,1-1.43,2Z" transform="translate(-105.77 -43.5)"/><path class="cls-11" d="M719.87,619a1.5,1.5,0,0,1-.27-3c9.21-1.72,19.76-3.64,28.25-4.79a1.5,1.5,0,1,1,.4,3c-8.43,1.15-18.94,3.06-28.11,4.77Z" transform="translate(-105.77 -43.5)"/><path class="cls-11" d="M748.05,614.22a1.5,1.5,0,0,1-1.41-1c-1.87-5.22-2.82-11.14-3.73-16.87-.54-3.4-1.06-6.61-1.74-9.53a1.5,1.5,0,0,1,2.92-.68c.7,3,1.23,6.29,1.78,9.74.89,5.59,1.82,11.38,3.59,16.33a1.5,1.5,0,0,1-1.41,2Z" transform="translate(-105.77 -43.5)"/><path class="cls-11" d="M666.66,622.38a1.5,1.5,0,0,1-1.47-1.21,120.78,120.78,0,0,1-1.74-12,1.5,1.5,0,1,1,3-.28,118,118,0,0,0,1.7,11.69,1.5,1.5,0,0,1-1.47,1.79Z" transform="translate(-105.77 -43.5)"/><path class="cls-11" d="M662.34,609.44a.26.26,0,0,0,0,.15c0,.15.25.12.39.05a12.33,12.33,0,0,1,4.83-1.24,11.24,11.24,0,0,1-1.68-2c-.28-.39-1.12-1.92-1.64-1.94s-.76,1.76-.89,2.22A19.33,19.33,0,0,1,662.34,609.44Z" transform="translate(-105.77 -43.5)"/><path class="cls-11" d="M671.86,621.56a1.5,1.5,0,0,1-1.47-1.21,120.75,120.75,0,0,1-1.74-12,1.5,1.5,0,1,1,3-.28,117.9,117.9,0,0,0,1.7,11.69,1.5,1.5,0,0,1-1.18,1.76Z" transform="translate(-105.77 -43.5)"/><path class="cls-11" d="M667.54,608.61a.26.26,0,0,0,0,.15c0,.15.25.12.39.05a12.33,12.33,0,0,1,4.83-1.24,11.24,11.24,0,0,1-1.68-2c-.28-.39-1.12-1.92-1.64-1.94s-.76,1.76-.89,2.22A19.33,19.33,0,0,1,667.54,608.61Z" transform="translate(-105.77 -43.5)"/><path class="cls-11" d="M702.49,619a2.52,2.52,0,0,1-.46,0,3.11,3.11,0,0,1-2.3-2.24,14.26,14.26,0,0,1-.48-1.74l-1.45-6.37a1.5,1.5,0,1,1,2.93-.67l1.45,6.37a12.26,12.26,0,0,0,.35,1.31,5.84,5.84,0,0,0,.14-.61,1.5,1.5,0,0,1,2.95.56,5.49,5.49,0,0,1-.71,2A2.91,2.91,0,0,1,702.49,619Z" transform="translate(-105.77 -43.5)"/><path class="cls-11" d="M693.91,610.54a2.17,2.17,0,0,1-1.89-.87c-.61-.85-.49-2,.34-3.36a8.16,8.16,0,0,1,4.83-3.94,11.49,11.49,0,0,1,4.48-.26,6.73,6.73,0,0,1,3.94,1.92,4.41,4.41,0,0,1,1.9,3.2,1.5,1.5,0,0,1-1.23,1.49c-2.55.46-5.14.88-7.71,1.25-.48.07-1,.12-1.47.17a21.5,21.5,0,0,0-2.27.32A4.39,4.39,0,0,1,693.91,610.54ZM700,605a7.29,7.29,0,0,0-2,.25,4.76,4.76,0,0,0-2.72,2.06c.51-.07,1-.12,1.51-.18s.91-.09,1.36-.16c1.77-.25,3.56-.53,5.33-.83a3.56,3.56,0,0,0-2.16-1.06A11.39,11.39,0,0,0,700,605Z" transform="translate(-105.77 -43.5)"/><path class="cls-11" d="M698.86,604.5a1.5,1.5,0,0,1-1.45-1.11l-.44-1.6a1.5,1.5,0,1,1,2.89-.79l.44,1.6a1.5,1.5,0,0,1-1.45,1.89Z" transform="translate(-105.77 -43.5)"/><path class="cls-11" d="M729.58,605.81a6.59,6.59,0,0,1-2.87-.71,4,4,0,0,1-1.54-1.23,4.38,4.38,0,0,1-.67-2l-1.1-7.41a1.5,1.5,0,1,1,3-.44l1.1,7.41a2.64,2.64,0,0,0,.16.7,1.16,1.16,0,0,0,.41.26,3.42,3.42,0,0,0,1.76.39,1.67,1.67,0,0,0,1.19-.6c.52-.71.27-2,0-3.21l-1.22-5.27a1.5,1.5,0,1,1,2.92-.68l1.22,5.27c.31,1.32.88,3.77-.5,5.66a4.62,4.62,0,0,1-3.34,1.81Z" transform="translate(-105.77 -43.5)"/><path class="cls-11" d="M724.92,595.53a1.5,1.5,0,0,1-.49-2.92,8.6,8.6,0,0,1,2-.38l4.62-.46a1.5,1.5,0,0,1,.3,3l-4.62.46a6.16,6.16,0,0,0-1.34.23A1.5,1.5,0,0,1,724.92,595.53Z" transform="translate(-105.77 -43.5)"/><path class="cls-11" d="M730.91,613.71a1.5,1.5,0,0,1-1.46-1.19c-.54-2.52-1-5.09-1.25-7.65a1.5,1.5,0,1,1,3-.34c.28,2.46.68,4.93,1.2,7.36a1.5,1.5,0,0,1-1.47,1.81Z" transform="translate(-105.77 -43.5)"/><path class="cls-11" d="M728.12,615a1.5,1.5,0,0,1-.52-2.91,9.5,9.5,0,0,1,2.54-.46l.75-.07A9.73,9.73,0,0,0,733,611a1.5,1.5,0,1,1,1,2.82,12.73,12.73,0,0,1-2.81.67l-.85.08a7.07,7.07,0,0,0-1.76.29A1.49,1.49,0,0,1,728.12,615Z" transform="translate(-105.77 -43.5)"/><path class="cls-11" d="M500.65,218.38a1.5,1.5,0,0,1-.13-3l27.59-2.52a1.5,1.5,0,1,1,.27,3l-27.59,2.52Z" transform="translate(-105.77 -43.5)"/><path class="cls-11" d="M502.24,244.21a1.5,1.5,0,0,1-1.47-1.19c-1.9-9.06-1.85-17.55-1.62-26.18a1.5,1.5,0,1,1,3,.08c-.23,8.44-.28,16.74,1.56,25.48a1.5,1.5,0,0,1-1.47,1.81Z" transform="translate(-105.77 -43.5)"/><path class="cls-11" d="M502.24,244.21a1.5,1.5,0,0,1-.11-3c9.34-.71,20.05-1.46,28.61-1.69h0a1.5,1.5,0,0,1,0,3c-8.49.22-19.15,1-28.46,1.68Z" transform="translate(-105.77 -43.5)"/><path class="cls-11" d="M530.77,242.53a1.5,1.5,0,0,1-1.46-1.15C528,236,527.73,230,527.44,224.2c-.17-3.44-.33-6.68-.69-9.66a1.5,1.5,0,0,1,3-.36c.37,3.08.53,6.38.71,9.87.28,5.66.57,11.51,1.79,16.63a1.5,1.5,0,0,1-1.46,1.85Z" transform="translate(-105.77 -43.5)"/><path class="cls-11" d="M532.74,216.62a1.5,1.5,0,0,1-.13-3l27.59-2.52a1.5,1.5,0,1,1,.27,3l-27.59,2.52Z" transform="translate(-105.77 -43.5)"/><path class="cls-11" d="M534.33,242.45a1.5,1.5,0,0,1-1.47-1.19c-1.9-9.06-1.85-17.55-1.62-26.18a1.5,1.5,0,1,1,3,.08c-.23,8.44-.28,16.74,1.56,25.48a1.5,1.5,0,0,1-1.47,1.81Z" transform="translate(-105.77 -43.5)"/><path class="cls-11" d="M534.33,242.45a1.5,1.5,0,0,1-.11-3c9.34-.71,20.05-1.46,28.61-1.69a1.5,1.5,0,0,1,.08,3c-8.49.22-19.15,1-28.46,1.68Z" transform="translate(-105.77 -43.5)"/><path class="cls-11" d="M562.86,240.77a1.5,1.5,0,0,1-1.46-1.15c-1.29-5.39-1.58-11.38-1.87-17.17-.17-3.44-.33-6.68-.69-9.66a1.5,1.5,0,0,1,3-.36c.37,3.08.53,6.38.71,9.87.28,5.66.57,11.51,1.79,16.63a1.5,1.5,0,0,1-1.46,1.85Z" transform="translate(-105.77 -43.5)"/><path class="cls-11" d="M564.86,214.67a1.5,1.5,0,0,1-.13-3l27.59-2.52a1.5,1.5,0,1,1,.27,3L565,214.66Z" transform="translate(-105.77 -43.5)"/><path class="cls-11" d="M566.45,240.5A1.5,1.5,0,0,1,565,239.3c-1.9-9.06-1.85-17.55-1.62-26.18a1.5,1.5,0,1,1,3,.08c-.23,8.44-.28,16.74,1.56,25.48a1.5,1.5,0,0,1-1.47,1.81Z" transform="translate(-105.77 -43.5)"/><path class="cls-11" d="M566.45,240.5a1.5,1.5,0,0,1-.11-3c9.33-.71,20-1.46,28.61-1.69a1.5,1.5,0,0,1,.08,3c-8.51.22-19.16,1-28.46,1.68Z" transform="translate(-105.77 -43.5)"/><path class="cls-11" d="M595,238.81a1.5,1.5,0,0,1-1.46-1.15c-1.29-5.39-1.58-11.38-1.87-17.18-.17-3.44-.33-6.68-.69-9.66a1.5,1.5,0,0,1,3-.36c.37,3.08.53,6.38.71,9.87.28,5.66.57,11.51,1.79,16.63a1.5,1.5,0,0,1-1.46,1.85Z" transform="translate(-105.77 -43.5)"/><path class="cls-11" d="M513.19,238.06a1.5,1.5,0,0,1-1.49-1.37,120.8,120.8,0,0,1-.42-12.11,1.52,1.52,0,0,1,1.52-1.48,1.5,1.5,0,0,1,1.48,1.52,118,118,0,0,0,.41,11.81,1.5,1.5,0,0,1-1.37,1.62Z" transform="translate(-105.77 -43.5)"/><path class="cls-11" d="M510.14,224.71a.26.26,0,0,0,0,.15c0,.15.24.14.38.09a12.33,12.33,0,0,1,4.93-.71,11.24,11.24,0,0,1-1.46-2.14c-.24-.42-.91-2-1.42-2.11s-.95,1.66-1.12,2.11A19.33,19.33,0,0,1,510.14,224.71Z" transform="translate(-105.77 -43.5)"/><path class="cls-11" d="M518.45,237.8a1.5,1.5,0,0,1-1.49-1.37,120.79,120.79,0,0,1-.42-12.11,1.5,1.5,0,0,1,1.5-1.48h0a1.5,1.5,0,0,1,1.48,1.52,118,118,0,0,0,.41,11.81,1.5,1.5,0,0,1-1.37,1.62Z" transform="translate(-105.77 -43.5)"/><path class="cls-11" d="M515.4,224.46a.26.26,0,0,0,0,.15c0,.15.24.14.38.09a12.33,12.33,0,0,1,4.93-.71,11.24,11.24,0,0,1-1.46-2.14c-.24-.42-.91-2-1.42-2.11s-.95,1.66-1.12,2.11A19.33,19.33,0,0,1,515.4,224.46Z" transform="translate(-105.77 -43.5)"/><path class="cls-11" d="M549.29,238.63a2.53,2.53,0,0,1-.73-.11,3.11,3.11,0,0,1-2-2.48,14,14,0,0,1-.28-1.78l-.75-6.5a1.5,1.5,0,1,1,3-.34l.74,6.49a12.42,12.42,0,0,0,.2,1.34,5.71,5.71,0,0,0,.21-.59,1.5,1.5,0,1,1,2.87.88,5.48,5.48,0,0,1-.93,2A3,3,0,0,1,549.29,238.63Z" transform="translate(-105.77 -43.5)"/><path class="cls-11" d="M541.83,229.26a2.3,2.3,0,0,1-2.2-1.1c-.51-.91-.27-2,.7-3.3a8.16,8.16,0,0,1,5.24-3.39,11.43,11.43,0,0,1,4.48.23,6.71,6.71,0,0,1,3.71,2.33,4.4,4.4,0,0,1,1.54,3.39,1.5,1.5,0,0,1-1.39,1.34c-2.58.18-5.21.32-7.8.4-.49,0-1,0-1.48,0a22.18,22.18,0,0,0-2.28.07Zm12-2h0Zm-6.65-2.92a6.64,6.64,0,0,0-1.09.09,4.76,4.76,0,0,0-2.93,1.75c.51,0,1,0,1.51,0s.92,0,1.37,0c1.79-.06,3.59-.14,5.39-.24a3.56,3.56,0,0,0-2-1.29A10,10,0,0,0,547.15,224.35Z" transform="translate(-105.77 -43.5)"/><path class="cls-11" d="M547.14,223.79a1.5,1.5,0,0,1-1.48-1.27l-.26-1.64a1.5,1.5,0,1,1,3-.47l.26,1.64a1.5,1.5,0,0,1-1.25,1.72Z" transform="translate(-105.77 -43.5)"/><path class="cls-11" d="M578,228.46h-.11a6.37,6.37,0,0,1-3.25-1,4,4,0,0,1-1.4-1.39,4.39,4.39,0,0,1-.46-2l-.29-7.49a1.5,1.5,0,0,1,3-.12l.29,7.49a2.64,2.64,0,0,0,.08.71,1.17,1.17,0,0,0,.38.3,3.4,3.4,0,0,0,1.7.58,1.69,1.69,0,0,0,1.25-.46c.6-.65.49-2,.35-3.19l-.64-5.37a1.5,1.5,0,0,1,3-.35l.64,5.37c.16,1.34.46,3.85-1.12,5.57A4.6,4.6,0,0,1,578,228.46Z" transform="translate(-105.77 -43.5)"/><path class="cls-11" d="M574,217.71a1.5,1.5,0,0,1-.33-3,8.77,8.77,0,0,1,2.05-.15l4.65,0a1.5,1.5,0,0,1,0,3h0l-4.64,0a6.15,6.15,0,0,0-1.35.08A1.53,1.53,0,0,1,574,217.71Z" transform="translate(-105.77 -43.5)"/><path class="cls-11" d="M578,236.44a1.5,1.5,0,0,1-1.49-1.35c-.26-2.55-.4-5.16-.41-7.74a1.5,1.5,0,0,1,1.49-1.51h0a1.5,1.5,0,0,1,1.5,1.49c0,2.48.14,5,.39,7.45a1.5,1.5,0,0,1-1.34,1.64Z" transform="translate(-105.77 -43.5)"/><path class="cls-11" d="M575.09,237.37a1.5,1.5,0,0,1-.36-3,9.55,9.55,0,0,1,2.58-.18h.75a9.75,9.75,0,0,0,2.19-.27,1.5,1.5,0,1,1,.71,2.92,12.81,12.81,0,0,1-2.87.36h-.85a7.06,7.06,0,0,0-1.79.1A1.52,1.52,0,0,1,575.09,237.37Z" transform="translate(-105.77 -43.5)"/><path class="cls-11" d="M266.5,686.83a1.5,1.5,0,0,1-.31-3l27.11-5.73a1.5,1.5,0,1,1,.62,2.94l-27.11,5.73A1.55,1.55,0,0,1,266.5,686.83Z" transform="translate(-105.77 -43.5)"/><path class="cls-11" d="M271.1,712.29a1.5,1.5,0,0,1-1.42-1c-3-8.77-3.9-17.21-4.68-25.81a1.5,1.5,0,1,1,3-.27c.76,8.41,1.68,16.66,4.53,25.13a1.5,1.5,0,0,1-.94,1.9A1.52,1.52,0,0,1,271.1,712.29Z" transform="translate(-105.77 -43.5)"/><path class="cls-11" d="M271.1,712.29a1.5,1.5,0,0,1-.29-3c9.18-1.79,19.71-3.79,28.21-5a1.5,1.5,0,0,1,.43,3c-8.43,1.22-18.92,3.21-28.07,5A1.46,1.46,0,0,1,271.1,712.29Z" transform="translate(-105.77 -43.5)"/><path class="cls-11" d="M299.24,707.28a1.5,1.5,0,0,1-1.41-1c-1.91-5.2-2.91-11.12-3.87-16.84-.57-3.39-1.11-6.6-1.81-9.51a1.5,1.5,0,0,1,2.92-.71c.73,3,1.28,6.27,1.86,9.72.94,5.59,1.91,11.36,3.73,16.3a1.5,1.5,0,0,1-1.41,2Z" transform="translate(-105.77 -43.5)"/><path class="cls-11" d="M298.16,681.32a1.5,1.5,0,0,1-.31-3L325,672.62a1.5,1.5,0,0,1,.62,2.94l-27.11,5.73A1.55,1.55,0,0,1,298.16,681.32Z" transform="translate(-105.77 -43.5)"/><path class="cls-11" d="M302.77,706.79a1.5,1.5,0,0,1-1.42-1c-3-8.77-3.9-17.22-4.68-25.81a1.5,1.5,0,1,1,3-.27c.76,8.41,1.68,16.66,4.53,25.13a1.5,1.5,0,0,1-.94,1.9A1.52,1.52,0,0,1,302.77,706.79Z" transform="translate(-105.77 -43.5)"/><path class="cls-11" d="M302.77,706.79a1.5,1.5,0,0,1-.29-3c9.2-1.8,19.75-3.8,28.21-5a1.5,1.5,0,1,1,.43,3c-8.4,1.21-18.9,3.21-28.07,5Z" transform="translate(-105.77 -43.5)"/><path class="cls-11" d="M330.91,701.78a1.5,1.5,0,0,1-1.41-1c-1.91-5.2-2.91-11.12-3.87-16.84-.57-3.39-1.11-6.6-1.81-9.51a1.5,1.5,0,0,1,2.92-.71c.73,3,1.28,6.27,1.86,9.72.94,5.58,1.91,11.36,3.73,16.3a1.5,1.5,0,0,1-1.41,2Z" transform="translate(-105.77 -43.5)"/><path class="cls-11" d="M329.83,675.62a1.5,1.5,0,0,1-.31-3l27.11-5.73a1.5,1.5,0,1,1,.62,2.94l-27.11,5.73A1.55,1.55,0,0,1,329.83,675.62Z" transform="translate(-105.77 -43.5)"/><path class="cls-11" d="M334.44,701.08a1.5,1.5,0,0,1-1.42-1c-3-8.77-3.9-17.21-4.68-25.81a1.5,1.5,0,1,1,3-.27c.76,8.41,1.68,16.66,4.53,25.12a1.5,1.5,0,0,1-.94,1.9A1.52,1.52,0,0,1,334.44,701.08Z" transform="translate(-105.77 -43.5)"/><path class="cls-11" d="M334.44,701.08a1.5,1.5,0,0,1-.29-3c9.19-1.79,19.74-3.8,28.21-5a1.5,1.5,0,0,1,.43,3c-8.41,1.22-18.91,3.21-28.07,5Z" transform="translate(-105.77 -43.5)"/><path class="cls-11" d="M362.58,696.07a1.5,1.5,0,0,1-1.41-1c-1.91-5.2-2.91-11.12-3.87-16.83-.57-3.39-1.11-6.6-1.82-9.52a1.5,1.5,0,0,1,2.92-.71c.73,3,1.28,6.28,1.86,9.72.94,5.58,1.91,11.36,3.73,16.3a1.5,1.5,0,0,1-1.41,2Z" transform="translate(-105.77 -43.5)"/><path class="cls-11" d="M281.26,704.9a1.5,1.5,0,0,1-1.47-1.2c-.81-3.95-1.43-8-1.84-12a1.5,1.5,0,1,1,3-.3c.4,3.9,1,7.83,1.79,11.68a1.5,1.5,0,0,1-1.17,1.77A1.54,1.54,0,0,1,281.26,704.9Z" transform="translate(-105.77 -43.5)"/><path class="cls-11" d="M276.84,692a.26.26,0,0,0,0,.15c0,.15.25.12.39,0a12.33,12.33,0,0,1,4.82-1.28,11.24,11.24,0,0,1-1.7-2c-.29-.39-1.14-1.92-1.66-1.93s-.75,1.76-.87,2.23A19.33,19.33,0,0,1,276.84,692Z" transform="translate(-105.77 -43.5)"/><path class="cls-11" d="M286.45,704a1.5,1.5,0,0,1-1.47-1.2,120.91,120.91,0,0,1-1.84-12,1.5,1.5,0,1,1,3-.3,118,118,0,0,0,1.79,11.68,1.5,1.5,0,0,1-1.17,1.77A1.53,1.53,0,0,1,286.45,704Z" transform="translate(-105.77 -43.5)"/><path class="cls-11" d="M282,691.12a.26.26,0,0,0,0,.15c0,.15.25.12.39,0a12.33,12.33,0,0,1,4.82-1.28,11.24,11.24,0,0,1-1.7-2c-.29-.39-1.14-1.92-1.66-1.93s-.75,1.76-.87,2.23A19.33,19.33,0,0,1,282,691.12Z" transform="translate(-105.77 -43.5)"/><path class="cls-11" d="M317.05,701.25a2.49,2.49,0,0,1-.44,0,3.11,3.11,0,0,1-2.32-2.23,14.09,14.09,0,0,1-.49-1.73l-1.5-6.36a1.5,1.5,0,0,1,2.92-.69l1.5,6.36a12.44,12.44,0,0,0,.36,1.31,5.79,5.79,0,0,0,.13-.61,1.5,1.5,0,1,1,3,.54,5.42,5.42,0,0,1-.7,2.05A2.91,2.91,0,0,1,317.05,701.25Z" transform="translate(-105.77 -43.5)"/><path class="cls-11" d="M308.39,692.83a2.17,2.17,0,0,1-1.87-.86c-.61-.84-.51-2,.31-3.36a8.15,8.15,0,0,1,4.8-4,11.42,11.42,0,0,1,4.48-.3,6.72,6.72,0,0,1,4,1.88,4.4,4.4,0,0,1,1.93,3.18,1.5,1.5,0,0,1-1.22,1.49c-2.56.49-5.15.93-7.7,1.31-.48.07-1,.13-1.46.18a21.61,21.61,0,0,0-2.27.33A4.39,4.39,0,0,1,308.39,692.83Zm6.15-5.59a7.42,7.42,0,0,0-2.07.27,4.76,4.76,0,0,0-2.71,2.08c.51-.08,1-.13,1.51-.19s.91-.1,1.36-.17c1.76-.26,3.54-.56,5.32-.87a3.57,3.57,0,0,0-2.17-1A11.49,11.49,0,0,0,314.55,687.24Z" transform="translate(-105.77 -43.5)"/><path class="cls-11" d="M313.31,686.76a1.5,1.5,0,0,1-1.44-1.09l-.45-1.6a1.5,1.5,0,1,1,2.89-.81l.45,1.6a1.5,1.5,0,0,1-1.44,1.91Z" transform="translate(-105.77 -43.5)"/><path class="cls-11" d="M344,687.81a6.59,6.59,0,0,1-2.83-.68,3.93,3.93,0,0,1-1.55-1.22,4.38,4.38,0,0,1-.69-2l-1.16-7.4a1.5,1.5,0,0,1,3-.47l1.16,7.4a2.62,2.62,0,0,0,.17.69,1.14,1.14,0,0,0,.41.26,3.37,3.37,0,0,0,1.76.38,1.67,1.67,0,0,0,1.18-.61c.52-.72.26-2,0-3.21l-1.27-5.26A1.5,1.5,0,0,1,347,675l1.27,5.26c.32,1.32.91,3.77-.46,5.66a4.62,4.62,0,0,1-3.33,1.84Z" transform="translate(-105.77 -43.5)"/><path class="cls-11" d="M339.3,677.57a1.5,1.5,0,0,1-.5-2.91,8.62,8.62,0,0,1,2-.39l4.62-.5a1.5,1.5,0,1,1,.32,3l-4.62.5a6.21,6.21,0,0,0-1.34.24A1.49,1.49,0,0,1,339.3,677.57Z" transform="translate(-105.77 -43.5)"/><path class="cls-11" d="M345.44,695.71a1.5,1.5,0,0,1-1.46-1.17c-.56-2.51-1-5.08-1.31-7.64a1.5,1.5,0,1,1,3-.36c.3,2.46.73,4.93,1.26,7.35a1.5,1.5,0,0,1-1.47,1.83Z" transform="translate(-105.77 -43.5)"/><path class="cls-11" d="M342.65,697a1.5,1.5,0,0,1-.53-2.9,9.58,9.58,0,0,1,2.54-.48l.74-.08a9.78,9.78,0,0,0,2.15-.53,1.5,1.5,0,0,1,1,2.81,12.85,12.85,0,0,1-2.81.69l-.84.09a7.08,7.08,0,0,0-1.77.31A1.5,1.5,0,0,1,342.65,697Z" transform="translate(-105.77 -43.5)"/><path class="cls-1" d="M698.06,387.11a3.52,3.52,0,0,1-1.07-.17c-19.51-6.22-39-13.58-57.77-20.69-27.37-10.35-55.66-21.06-84.39-28.32a3.53,3.53,0,1,1,1.73-6.84c29.12,7.36,57.61,18.14,85.16,28.56,18.72,7.08,38.09,14.41,57.42,20.57a3.53,3.53,0,0,1-1.07,6.89Z" transform="translate(-105.77 -43.5)"/><path class="cls-1" d="M233.85,453.13a3.53,3.53,0,0,1-.9-6.94c12.29-3.27,24.88-6.06,37.4-8.29a3.53,3.53,0,0,1,1.24,6.95c-12.33,2.19-24.72,4.94-36.82,8.16A3.55,3.55,0,0,1,233.85,453.13Z" transform="translate(-105.77 -43.5)"/><path class="cls-11" d="M557.18,676.67a1.5,1.5,0,0,1-1.35-.85,43.4,43.4,0,0,1-1.72-4.29c-1-2.89-1.94-5.39-4.29-7.6a1.5,1.5,0,1,1,2.05-2.19c2.88,2.7,4,5.79,5.06,8.78a41,41,0,0,0,1.6,4,1.5,1.5,0,0,1-1.35,2.15Z" transform="translate(-105.77 -43.5)"/><path class="cls-11" d="M564.18,672.33a1.5,1.5,0,0,1-1.22-.62,9.23,9.23,0,0,1-1.36-4.23,12.75,12.75,0,0,0-.42-2.11,8.8,8.8,0,0,0-1.28-2.19,8.19,8.19,0,0,1-1.89-4.25,1.5,1.5,0,0,1,3-.18,5.7,5.7,0,0,0,1.34,2.7,11.35,11.35,0,0,1,1.68,3,15.14,15.14,0,0,1,.54,2.62,6.87,6.87,0,0,0,.83,2.91,1.5,1.5,0,0,1-1.22,2.38Z" transform="translate(-105.77 -43.5)"/><path class="cls-11" d="M411.84,735.33a1.5,1.5,0,0,1-.95-2.66c4.89-4,15-6.91,21.52-7.33a1.5,1.5,0,1,1,.19,3c-6.1.39-15.52,3.16-19.81,6.67A1.49,1.49,0,0,1,411.84,735.33Z" transform="translate(-105.77 -43.5)"/><path class="cls-11" d="M425.84,743a1.5,1.5,0,0,1-.73-2.81c.79-.43,1.54-.93,2.35-1.46a21.68,21.68,0,0,1,4.89-2.64,1.5,1.5,0,0,1,1,2.84,19.12,19.12,0,0,0-4.21,2.31c-.81.54-1.66,1.09-2.55,1.58A1.49,1.49,0,0,1,425.84,743Z" transform="translate(-105.77 -43.5)"/><path class="cls-11" d="M492.18,698.67h-.07a1.5,1.5,0,0,1-1.43-1.57c.16-3.24,3.28-9.69,5.4-12a1.5,1.5,0,1,1,2.19,2.05c-1.71,1.82-4.47,7.53-4.6,10A1.5,1.5,0,0,1,492.18,698.67Z" transform="translate(-105.77 -43.5)"/><path class="cls-11" d="M492.18,708.33a1.5,1.5,0,0,1-1.37-2.12,14.94,14.94,0,0,0,1.2-4.79,1.5,1.5,0,0,1,3,.14,17.83,17.83,0,0,1-1.46,5.88A1.5,1.5,0,0,1,492.18,708.33Z" transform="translate(-105.77 -43.5)"/><path class="cls-11" d="M488.84,783.33a1.5,1.5,0,0,1-.57-.11c-.86-.35-1.75-.69-2.57-1a1.5,1.5,0,1,1,1-2.84c.89.3,1.84.66,2.76,1a1.5,1.5,0,0,1-.57,2.89Z" transform="translate(-105.77 -43.5)"/><path class="cls-11" d="M492.18,776.67H492a9.22,9.22,0,0,1-3.59-1.2,1.5,1.5,0,1,1,1.51-2.59,6.19,6.19,0,0,0,2.41.8,1.5,1.5,0,0,1-.17,3Z" transform="translate(-105.77 -43.5)"/><path class="cls-11" d="M498.45,782.38a6.56,6.56,0,0,1-2.51-.49,1.5,1.5,0,0,1,1.14-2.78,3.67,3.67,0,0,0,1.9.23,1.5,1.5,0,1,1,.39,3A7.09,7.09,0,0,1,498.45,782.38Z" transform="translate(-105.77 -43.5)"/><path class="cls-11" d="M631.18,690.67a1.5,1.5,0,0,1-1.5-1.5v-3a1.5,1.5,0,0,1,3,0v3A1.5,1.5,0,0,1,631.18,690.67Z" transform="translate(-105.77 -43.5)"/><path class="cls-11" d="M632.51,700.67h-.21A1.5,1.5,0,0,1,631,699a2.59,2.59,0,0,0-.21-1.5,1.5,1.5,0,0,1,2.72-1.26,5.58,5.58,0,0,1,.46,3.17A1.5,1.5,0,0,1,632.51,700.67Z" transform="translate(-105.77 -43.5)"/><path class="cls-11" d="M627.18,696.33a1.5,1.5,0,0,1-1.5-1.5v-1.67a1.5,1.5,0,0,1,3,0v1.67A1.5,1.5,0,0,1,627.18,696.33Z" transform="translate(-105.77 -43.5)"/><path class="cls-11" d="M372.18,581.33a1.5,1.5,0,0,1-.72-2.82c3.81-2.08,14.85-4.39,18.79-.4a1.5,1.5,0,1,1-2.13,2.11c-2.49-2.52-11.85-.91-15.21.93A1.49,1.49,0,0,1,372.18,581.33Z" transform="translate(-105.77 -43.5)"/><path class="cls-11" d="M388.51,580.33a1.5,1.5,0,0,1-1.14-.52,24.8,24.8,0,0,0-5.8-4.47c-3.37-2.12-6.86-4.32-8.77-8.56a1.5,1.5,0,1,1,2.74-1.23c1.54,3.42,4.5,5.28,7.63,7.25a27.44,27.44,0,0,1,6.47,5.05,1.5,1.5,0,0,1-1.14,2.48Z" transform="translate(-105.77 -43.5)"/><path class="cls-11" d="M510.58,669.36l-1.18,0h-1.23a1.5,1.5,0,0,1,0-3h1.29a13.85,13.85,0,0,0,4-.29,1.5,1.5,0,1,1,.81,2.89A13.35,13.35,0,0,1,510.58,669.36Z" transform="translate(-105.77 -43.5)"/><path class="cls-11" d="M521.51,671.33h-2a1.5,1.5,0,0,1,0-3h2a1.5,1.5,0,0,1,0,3Z" transform="translate(-105.77 -43.5)"/><path class="cls-11" d="M549.17,628a1.5,1.5,0,0,1-1.47-1.21A30,30,0,0,0,543,616.46a1.5,1.5,0,1,1,2.31-1.92c2.25,2.71,4.66,8.39,5.32,11.67a1.5,1.5,0,0,1-1.18,1.76A1.46,1.46,0,0,1,549.17,628Z" transform="translate(-105.77 -43.5)"/><path class="cls-11" d="M268.51,659a1.5,1.5,0,0,1-1.5-1.5v-4.67a1.5,1.5,0,0,1,3,0v4.67A1.5,1.5,0,0,1,268.51,659Z" transform="translate(-105.77 -43.5)"/><path class="cls-11" d="M267.84,666.67a1.5,1.5,0,0,1-1.49-1.33,8.15,8.15,0,0,1,.41-3.67,1.5,1.5,0,0,1,2.83,1,5.18,5.18,0,0,0-.26,2.33,1.5,1.5,0,0,1-1.32,1.66Z" transform="translate(-105.77 -43.5)"/><path class="cls-11" d="M273.17,659.33a1.5,1.5,0,0,1-1.48-1.3,4.89,4.89,0,0,1,.48-2.88,1.5,1.5,0,1,1,2.68,1.35,1.89,1.89,0,0,0-.19,1.12,1.5,1.5,0,0,1-1.28,1.69Z" transform="translate(-105.77 -43.5)"/><path class="cls-11" d="M165.51,652.67a1.5,1.5,0,0,1-1.4-.95,33.38,33.38,0,0,1-2.1-13,1.5,1.5,0,0,1,3,.16,30.59,30.59,0,0,0,1.9,11.7,1.5,1.5,0,0,1-1.39,2.05Z" transform="translate(-105.77 -43.5)"/><path class="cls-11" d="M170.51,646.67a1.5,1.5,0,0,1-1.2-.59,17.13,17.13,0,0,1-1.55-2.73c-.19-.39-.38-.77-.57-1.13a1.5,1.5,0,0,1,2.65-1.42c.21.39.41.81.62,1.22a15.28,15.28,0,0,0,1.25,2.25,1.5,1.5,0,0,1-1.19,2.41Z" transform="translate(-105.77 -43.5)"/><path class="cls-11" d="M270.84,441.67h0a1.5,1.5,0,0,1-1.5-1.5,15.5,15.5,0,0,0-.58-3.65,27.65,27.65,0,0,1-.57-2.81,30,30,0,0,1-.21-3.51c0-.44,0-.87,0-1.29a1.5,1.5,0,0,1-1.85-.73,8.88,8.88,0,0,1-.72-2.27,3.93,3.93,0,0,1-.73.54,1.5,1.5,0,0,1-2.2-.92l-.08-.3-.06-.22c-.17.32-.34.63-.53.93a1.5,1.5,0,0,1-2.17.42,6.21,6.21,0,0,1-.52-.43,28.48,28.48,0,0,1,.58,7.39,1.5,1.5,0,1,1-3-.26,27.61,27.61,0,0,0-.63-7.12,35.76,35.76,0,0,1-.73-6.67,1.5,1.5,0,0,1,2.74-.82,18.52,18.52,0,0,1,1.35,2.49c.26.54.51,1.07.78,1.55.22-.52.42-1.09.62-1.72a1.5,1.5,0,0,1,2.46-.64,5.09,5.09,0,0,1,1.07,1.51c.07-.19.13-.37.2-.55a1.5,1.5,0,0,1,2.78,0,12.55,12.55,0,0,1,.71,2.64,1.41,1.41,0,0,1,.86-.25,1.5,1.5,0,0,1,1.4,1,19,19,0,0,1,.69,5.67,27.31,27.31,0,0,0,.18,3.17,24.77,24.77,0,0,0,.52,2.51,18,18,0,0,1,.67,4.36A1.5,1.5,0,0,1,270.84,441.67Z" transform="translate(-105.77 -43.5)"/><path class="cls-11" d="M206.51,695.33a1.5,1.5,0,0,1-1.41-1c-1.2-3.37-.75-7-.32-10.57a34.32,34.32,0,0,0,.4-6.41,2.38,2.38,0,0,1-1.44.28c-1.77-.24-2.37-2.24-3-4.35l0-.13a4.77,4.77,0,0,1-1.67,2.22,1.5,1.5,0,0,1-2.18-.57,15.46,15.46,0,0,1-1.05-3.23l-.14-.57-.12.56a21.28,21.28,0,0,1-.67,2.66,1.5,1.5,0,0,1-1.35,1,1.49,1.49,0,0,1-1.43-.89,38.93,38.93,0,0,1-2-6.27c-.21-.8-.41-1.59-.62-2.35-.15.79-.28,1.6-.42,2.43s-.23,1.4-.35,2.12-.29,1.44-.47,2.28c-.65,3-1.64,7.55-.66,9.66a1.5,1.5,0,0,1-2.72,1.26c-1.41-3-.38-7.76.45-11.56.17-.8.33-1.54.45-2.17s.24-1.38.35-2.06a31.06,31.06,0,0,1,1.81-7.32,1.5,1.5,0,0,1,2.72-.09,34.45,34.45,0,0,1,2.38,7.07l.26,1a7.69,7.69,0,0,1,1.07-2.13,1.5,1.5,0,0,1,1.13-.61,1.53,1.53,0,0,1,1.19.49,9.35,9.35,0,0,1,1.9,4.11,9.09,9.09,0,0,1,.77-1.8,1.5,1.5,0,0,1,2.42-.22,11.77,11.77,0,0,1,1.88,4.24c.17.57.4,1.33.61,1.85a8.94,8.94,0,0,0,.62-.88,1.5,1.5,0,0,1,2.69.34c1.09,3.36.65,6.94.23,10.41s-.8,6.49.17,9.19a1.5,1.5,0,0,1-1.41,2Z" transform="translate(-105.77 -43.5)"/><path class="cls-11" d="M455.51,328.33a1.5,1.5,0,0,1-1.5-1.43c0-.59-.09-1.18-.15-1.76a24.68,24.68,0,0,1-.18-2.65,1.5,1.5,0,0,1,3,0,21.91,21.91,0,0,0,.17,2.33c.07.64.13,1.28.17,1.93a1.5,1.5,0,0,1-1.43,1.57Z" transform="translate(-105.77 -43.5)"/><path class="cls-11" d="M455.51,339.67a1.5,1.5,0,0,1-1.5-1.5v-2a1.5,1.5,0,0,1,3,0v2A1.5,1.5,0,0,1,455.51,339.67Z" transform="translate(-105.77 -43.5)"/><path class="cls-11" d="M462.18,330.33a1.5,1.5,0,0,1-1.45-1.13c-.24-.93-.51-2.33-.69-3.47a1.5,1.5,0,1,1,3-.47c.17,1,.43,2.36.64,3.2a1.5,1.5,0,0,1-1.46,1.87Z" transform="translate(-105.77 -43.5)"/><path class="cls-11" d="M496.84,441h-.06a1.5,1.5,0,0,1-1.44-1.56v-.35a26,26,0,0,1,.71-6,1.5,1.5,0,0,1,2.88.83,23.86,23.86,0,0,0-.6,5.29v.36A1.5,1.5,0,0,1,496.84,441Z" transform="translate(-105.77 -43.5)"/><path class="cls-11" d="M497.18,450.33a1.5,1.5,0,0,1-1.27-2.3,1.23,1.23,0,0,0,.13-.9,1.5,1.5,0,1,1,2.94-.6,4.22,4.22,0,0,1-.53,3.1A1.5,1.5,0,0,1,497.18,450.33Z" transform="translate(-105.77 -43.5)"/><path class="cls-11" d="M636.84,488.33a1.5,1.5,0,0,1-1.31-2.22,10.57,10.57,0,0,1,2.73-3.13,1.5,1.5,0,1,1,1.83,2.38,7.6,7.6,0,0,0-1.94,2.2A1.5,1.5,0,0,1,636.84,488.33Z" transform="translate(-105.77 -43.5)"/><path class="cls-11" d="M743.18,547a1.5,1.5,0,0,1-1.28-2.28,17.16,17.16,0,0,0,1.4-3.36c.16-.46.31-.93.48-1.38a1.5,1.5,0,0,1,2.81,1c-.16.43-.3.86-.45,1.3a19.66,19.66,0,0,1-1.67,4A1.5,1.5,0,0,1,743.18,547Z" transform="translate(-105.77 -43.5)"/><path class="cls-11" d="M747.18,559a1.5,1.5,0,0,1-1-2.61.53.53,0,0,0,.18-.47,1.5,1.5,0,0,1,3-.18,3.52,3.52,0,0,1-1.15,2.87A1.49,1.49,0,0,1,747.18,559Z" transform="translate(-105.77 -43.5)"/></g><g id="LINEART"><path class="cls-1" d="M389.53,594.58a2.5,2.5,0,0,1-.54-.06l-.89-.19c-12.57-2.76-33.6-7.38-31.41-25.13.7-5.64,2.85-9.58,6.39-11.73,7-4.23,17.46-.3,25.87,2.86,2.22.83,4.31,1.62,6.1,2.16a2.5,2.5,0,1,1-1.46,4.78c-1.94-.59-4.1-1.4-6.4-2.26-7.4-2.78-16.62-6.24-21.52-3.26-2.2,1.33-3.51,4-4,8.06-1.51,12.21,12.77,16.39,27.52,19.63l.89.2a2.5,2.5,0,0,1-.54,4.94Z" transform="translate(-105.77 -43.5)"/><path class="cls-1" d="M586.6,621.13h-.12a2.5,2.5,0,0,1-2.37-2.62c.31-6.34.06-8.26-.76-14.61-.25-1.94-.6-4-1-6a2.5,2.5,0,0,1,4.9-1c.45,2.18.81,4.33,1.08,6.39a67.68,67.68,0,0,1,.8,15.5A2.5,2.5,0,0,1,586.6,621.13Z" transform="translate(-105.77 -43.5)"/><path class="cls-1" d="M384.51,562.5a2.5,2.5,0,0,1-2.11-3.83,92.9,92.9,0,0,1,26.15-27.28,106.28,106.28,0,0,1,34-15.26c4.37-1.1,8.81-2.41,13.1-3.68,8.43-2.49,17.14-5.07,26.13-6.25,1.59-.21,3.17-.44,4.75-.66,6.18-.88,12.57-1.8,19-1.59,8.11.27,13.78,2.23,20.9,5a72,72,0,0,1,29.78,21.5,2.5,2.5,0,0,1-3.83,3.22,67.07,67.07,0,0,0-27.75-20.05c-6.87-2.65-11.92-4.4-19.27-4.65-6-.2-11.92.65-18.16,1.54-1.6.23-3.2.46-4.8.67-8.59,1.13-17.12,3.65-25.36,6.09-4.34,1.28-8.82,2.61-13.3,3.73a101.32,101.32,0,0,0-32.41,14.54,87.87,87.87,0,0,0-24.72,25.8A2.5,2.5,0,0,1,384.51,562.5Z" transform="translate(-105.77 -43.5)"/><path class="cls-1" d="M378.15,676a2.5,2.5,0,0,1-2.48-2.17c-3.25-24.48-5.7-53.7.79-84.83a2.5,2.5,0,0,1,4.89,1c-6.33,30.4-3.92,59.1-.73,83.16a2.5,2.5,0,0,1-2.15,2.81Z" transform="translate(-105.77 -43.5)"/><path class="cls-1" d="M519.25,702.13a2.5,2.5,0,0,1-1.5-4.5A210.35,210.35,0,0,1,546.49,679a136.83,136.83,0,0,1,39.61-13.51c3.2-.56,6.43-.83,9.57-1.09a92.3,92.3,0,0,0,9.49-1.1,104.21,104.21,0,0,1,15.61-1.72l-.75-.81c-3.51-3.81-7.88-8.55-11.65-8.77a2.5,2.5,0,0,1,.29-5c5.79.33,10.71,5.66,15,10.37a49.59,49.59,0,0,0,4.7,4.71,2.5,2.5,0,0,1-1.56,4.45h-.06a98.51,98.51,0,0,0-20.7,1.67,97,97,0,0,1-10,1.17c-3,.25-6.14.5-9.1,1a131.83,131.83,0,0,0-38.16,13,205.28,205.28,0,0,0-28.06,18.21A2.49,2.49,0,0,1,519.25,702.13Z" transform="translate(-105.77 -43.5)"/><path class="cls-1" d="M445.87,782.45a2.5,2.5,0,0,1-1.79-.76c-2.5-2.57-6-4.44-9.79-6.42a61.91,61.91,0,0,1-8-4.77c-1.3-1-2.69-1.91-4.17-2.91a59.53,59.53,0,0,1-9.12-7.07,16.94,16.94,0,0,1-3.32-5.47,13.19,13.19,0,0,0-2-3.59,10.17,10.17,0,0,0-1.83-1.43,10.61,10.61,0,0,1-4.93-6.24,12.12,12.12,0,0,0-.93-2,61.62,61.62,0,0,1-3-5.52c-.79-1.56-1.53-3-2.4-4.48-.58-1-1.24-1.9-1.93-2.89-.57-.81-1.16-1.65-1.71-2.52-1.32-2.08-2.37-4.14-3.38-6.14-.52-1-1-2.06-1.61-3.1C381,708,379.4,699.4,378,689.9a2.5,2.5,0,1,1,4.95-.74c1.35,9,2.83,17.18,7.38,25.56.59,1.08,1.13,2.16,1.67,3.22,1,2,1.95,3.84,3.14,5.71.49.78,1,1.53,1.59,2.33.71,1,1.45,2.07,2.13,3.19,1,1.61,1.79,3.24,2.58,4.81a57.23,57.23,0,0,0,2.78,5.08,16.18,16.18,0,0,1,1.37,2.9,5.94,5.94,0,0,0,3.08,3.91,14.23,14.23,0,0,1,2.74,2.23,17.39,17.39,0,0,1,2.87,4.94,12.66,12.66,0,0,0,2.3,4,55.94,55.94,0,0,0,8.36,6.44c1.46,1,3,2,4.35,3a57.43,57.43,0,0,0,7.38,4.36,57,57,0,0,1,8.81,5.36c3-4.17,6.22-8.18,9.37-12.08a177.59,177.59,0,0,0,12.68-17c7.6-12.15,18.9-24.48,32.7-35.65a2.5,2.5,0,0,1,3.15,3.88C490,726.16,479,738.06,471.72,749.75a181.62,181.62,0,0,1-13,17.53c-3.67,4.54-7.46,9.23-10.75,14.08a2.5,2.5,0,0,1-1.85,1.09Z" transform="translate(-105.77 -43.5)"/><path class="cls-1" d="M518.09,796a170.73,170.73,0,0,1-28.22-2.37c-5.62.34-10.17-1.06-15-2.54-1.41-.43-2.87-.88-4.37-1.29a104,104,0,0,1-23.77-9.44,2.5,2.5,0,1,1,2.44-4.37,99,99,0,0,0,22.64,9c1.59.43,3.09.89,4.54,1.34,4.63,1.43,8.63,2.66,13.46,2.31a2.51,2.51,0,0,1,.6,0,162.56,162.56,0,0,0,38.24,2c12.47-.88,24.46-5.86,34.53-10.61a2.5,2.5,0,0,1,2.13,4.52c-10.49,5-23,10.14-36.31,11.08C525.44,795.85,521.79,796,518.09,796Z" transform="translate(-105.77 -43.5)"/><path class="cls-1" d="M579.89,776.93a2.5,2.5,0,0,1-1.2-4.7,168.65,168.65,0,0,0,16.36-10.06c3.14-2.2,6.54-4.29,9.82-6.3,7.82-4.8,15.91-9.76,21.57-16.9,18.62-23.46,11.39-59.13-7-77.71-1.25-1.26-2.29-2.46-3.21-3.52-2.36-2.71-4.06-4.66-7.51-5.89a2.5,2.5,0,0,1,1.68-4.71c4.69,1.67,7.08,4.41,9.61,7.32.92,1.05,1.86,2.14,3,3.28,10.43,10.51,17.37,25.4,19,40.85,1.78,16.35-2.36,31.79-11.64,43.49-6.22,7.83-14.68,13-22.87,18.05-3.37,2.07-6.55,4-9.56,6.13a173.37,173.37,0,0,1-16.84,10.35A2.49,2.49,0,0,1,579.89,776.93Z" transform="translate(-105.77 -43.5)"/><path class="cls-1" d="M467.17,513.92l-.39,0a2.5,2.5,0,0,1-2.09-2.85c1.1-7.09,5.21-16,13.17-17.81,7.2-1.64,14,4.06,16.22,13.56a2.5,2.5,0,0,1-4.87,1.12c-1.32-5.73-5.27-10.94-10.24-9.81-5.13,1.16-8.43,7.92-9.33,13.7A2.5,2.5,0,0,1,467.17,513.92Z" transform="translate(-105.77 -43.5)"/><path class="cls-1" d="M537.44,607.22h-.74c-4-.16-6.74-1.62-7.5-4s.57-5,4-7.56c2.92-2.24,11.31-4.41,15.13-1.5,1,.74,3,2.91,1.3,7.16S542.27,607.22,537.44,607.22Zm-3.33-5.55a10.86,10.86,0,0,0,6,.29c2.43-.46,4.36-1.49,4.79-2.56h0a2.43,2.43,0,0,0,.29-1.33c-1-1-7.07,0-9,1.52A8.16,8.16,0,0,0,534.12,601.67Z" transform="translate(-105.77 -43.5)"/><path class="cls-1" d="M461.94,640.88c-1.43,0-2.8,0-4.09-.05-14.46-.36-26.11-9.2-32.81-24.88a71.6,71.6,0,0,1-3.63-12.73,55.67,55.67,0,0,1-1.47-13c.18-9.12,3.38-16.86,10.38-25.08,4.1-4.82,12-9.22,18.08-11.46,20.17-7.44,48.23-1.52,57.84,19.15A94.12,94.12,0,0,1,511,586.68c3.92,13.69,2.82,25.54-3.26,35.23-4.81,7.67-14,13.74-25.16,16.67A82.12,82.12,0,0,1,461.94,640.88ZM466,555.62a46.28,46.28,0,0,0-15.89,2.71c-5.42,2-12.66,6.08-16,10-6.2,7.28-9,14-9.18,21.94h0a50.76,50.76,0,0,0,1.36,11.86A67.88,67.88,0,0,0,429.64,614c3.41,8,11.62,21.43,28.33,21.85,6.55.16,15.12.07,23.35-2.08,9.81-2.57,18.1-8,22.19-14.49,5.3-8.44,6.2-18.94,2.69-31.2a90.18,90.18,0,0,0-4.51-13.16C495.66,561.92,480.59,555.62,466,555.62Zm-43.57,34.61h0Z" transform="translate(-105.77 -43.5)"/><path class="cls-1" d="M467.07,655.25a61.92,61.92,0,0,1-23.16-4.39,51.53,51.53,0,0,1-28.79-28c-2.13-5-3.34-10.51-4.51-15.82a69.67,69.67,0,0,1-1.84-16.21h0c.2-11.39,4.16-21,12.81-31.27,5.09-6,14.91-11.5,22.39-14.27,19.5-7.21,44.36-3.48,60.45,9.07,12.67,9.89,16,25.19,18.73,37.49,6.14,28-10.29,53.73-39.07,61.25A67.41,67.41,0,0,1,467.07,655.25Zm-2-106.55a54.06,54.06,0,0,0-18.65,3.16c-6.6,2.45-15.41,7.42-19.45,12.21-7.54,8.91-11,17.19-11.15,26.84h0a62.8,62.8,0,0,0,1.68,14.57c1.1,5,2.23,10.16,4.11,14.57,10.56,24.83,38.53,32,60.69,26.17,25.38-6.63,39.34-28.39,34-52.91-3.12-14.23-6.3-25.72-16.18-33.44C490.8,552.63,477.77,548.7,465.08,548.7ZM412.3,590.85h0Z" transform="translate(-105.77 -43.5)"/><path class="cls-1" d="M578.15,615.43c-5.87,0-12-1.19-17.83-6.13-8-6.76-13.43-15.13-18.08-28a126.1,126.1,0,0,1-4.16-15.7,97.31,97.31,0,0,1-2.3-15.87A51.14,51.14,0,0,1,543,519.87c3.39-5.84,10.34-10.84,15.73-13.2,14.07-6.15,32.68-.86,45.25,12.87,9.54,10.41,12.86,25.54,15.52,37.7,3.71,16.92,2.33,31.23-4.12,42.55-7.37,12.93-19.3,14.13-28.88,15.1A82.79,82.79,0,0,1,578.15,615.43Zm-7-104.21a24,24,0,0,0-9.66,1.92c-4.33,1.9-10,6-12.45,10.27a44.47,44.47,0,0,0-6.25,26h0A90.27,90.27,0,0,0,545,564.08a121,121,0,0,0,3.9,14.81c4.26,11.78,8.89,19,16,25,6.42,5.41,13.41,4.71,20.81,4,10.88-1.09,18.35-2.49,23.53-11.58,5.56-9.75,6.69-22.39,3.36-37.54-3.16-14.41-6.19-26.09-13.84-34.44S580.64,511.22,571.19,511.22Z" transform="translate(-105.77 -43.5)"/><path class="cls-1" d="M583.65,599.89c-12.91,0-24.11-8.93-30.41-24.49-6.2-15.29-11.87-34.24-.67-45.15h0c.33-.32.68-.64,1-.95,9.59-8.13,26.29-5.09,35.28,2.74,12.16,10.58,16.24,24.2,18.63,36.13a28.15,28.15,0,0,1-4.45,22,23,23,0,0,1-16,9.47A28.62,28.62,0,0,1,583.65,599.89ZM556,533.84c-9.16,8.93-3.35,26.93,1.82,39.69,2.86,7.05,11.35,23.23,28.56,21.2A18,18,0,0,0,599,587.28a23.14,23.14,0,0,0,3.59-18.12c-3.15-15.74-8.23-25.71-17-33.34-7.45-6.48-21.33-9-28.78-2.69-.28.24-.54.47-.79.72Z" transform="translate(-105.77 -43.5)"/><path class="cls-1" d="M502.34,715.06a12.41,12.41,0,0,1-1.45-.08,2.5,2.5,0,1,1,.59-5c3.81.45,12.26-2.27,14.54-5.22,1.69-2.17.74-5.17.25-6.36a12.76,12.76,0,0,0-10.33-7.21l-2.56-.05a2.5,2.5,0,0,1,0-5h0l2.66.06a17.75,17.75,0,0,1,14.8,10.31c1.72,4.21,1.38,8.33-.93,11.31C516.83,711.92,508,715.06,502.34,715.06Z" transform="translate(-105.77 -43.5)"/><path class="cls-1" d="M567.78,785.4a11.33,11.33,0,0,1-5.54-1.29,6.36,6.36,0,0,1-2.08-1.92h0c-1.34-2-1.28-4.29-1.24-6.16a54.15,54.15,0,0,1,.73-7.32,57.41,57.41,0,0,1,3.61-13.28c1.85-4.36,7.79-13.46,14.3-13.77,2.15-.11,5.22.7,7.6,5.1a20.48,20.48,0,0,1,2.14,10c0,8.79-3.16,17.45-8.36,23.17-3,3.28-6.47,5.15-10.1,5.42C568.57,785.38,568.21,785.4,567.78,785.4Zm10.15-38.76h-.14c-3.3.16-8.17,6.56-9.94,10.73a52.57,52.57,0,0,0-3.27,12.13,49.13,49.13,0,0,0-.66,6.58c0,1.34-.07,2.65.36,3.28h0a1.35,1.35,0,0,0,.47.41,7.22,7.22,0,0,0,3.72.59c2.94-.22,5.3-2.18,6.77-3.79,4.32-4.76,7-12.36,7.06-19.83a15.72,15.72,0,0,0-1.53-7.62C579.51,746.83,578.42,746.65,577.93,746.65Z" transform="translate(-105.77 -43.5)"/><path class="cls-1" d="M638.39,738.56a8.38,8.38,0,0,1-2.86-.48,7.6,7.6,0,0,1-4.72-5.53,2.5,2.5,0,1,1,4.82-1.34c.49,1.77,1.3,2.06,1.6,2.17,3.61,1.3,12-4.53,14.77-6.45l.64-.44c4.49-3.09,7.55-11.34,8.59-18.14.57-3.7.06-8.38-2-10.17-.35-.3-1.41-1.21-4-.4-5.1,1.57-10.45,7.24-12.17,12.9a2.5,2.5,0,1,1-4.78-1.46C640.4,702,647.05,695,653.69,693c4.37-1.34,7.19,0,8.78,1.39,3.87,3.34,4.41,10,3.69,14.71-.4,2.64-2.81,16.08-10.69,21.5l-.63.43C649.12,735,643.25,738.56,638.39,738.56Z" transform="translate(-105.77 -43.5)"/><path class="cls-1" d="M447.81,618.41c-8.8,0-17.45-1.38-23.25-7.2a2.5,2.5,0,0,1,3.54-3.53c6.33,6.33,18,6.1,28.43,5.37,16.86-1.17,34.34-8.73,52-22.5a2.5,2.5,0,0,1,3.08,3.94c-18.43,14.39-36.84,22.31-54.71,23.54C453.9,618.24,450.84,618.41,447.81,618.41Z" transform="translate(-105.77 -43.5)"/><path class="cls-1" d="M566.29,578.89a30.83,30.83,0,0,1-11.69-2.11,2.5,2.5,0,0,1,1.9-4.62c13.85,5.69,37.34-3,43.33-16.07a2.5,2.5,0,0,1,4.54,2.09C598.86,570.2,581.39,578.89,566.29,578.89Z" transform="translate(-105.77 -43.5)"/><path class="cls-1" d="M556.63,603.14a2.49,2.49,0,0,1-1.14-.28,30.21,30.21,0,0,0-8.12-2.49,2.5,2.5,0,0,1,.78-4.94,34.78,34.78,0,0,1,9.62,3,2.5,2.5,0,0,1-1.14,4.73Z" transform="translate(-105.77 -43.5)"/><path class="cls-1" d="M529.43,626.73a8,8,0,0,1-6-2.45c-2.56-2.71-2.92-7-1-12,2.31-6.09,4.85-10,7.76-12A2.5,2.5,0,1,1,533,604.5c-2,1.35-4,4.58-5.88,9.6-.55,1.45-1.66,5,0,6.75s5,.78,7.32-.94c1-.71,1.89-1.55,2.86-2.43a17.66,17.66,0,0,1,14-6c1.06-.05,2.07-.1,3-.23,2.09-.27,4.7-1.25,5.3-3.11,0-.29,0-.8.06-1.22s0-.87.05-1a2.5,2.5,0,1,1,5,.57c0,.05,0,.3,0,.6a10.56,10.56,0,0,1-.18,2.17c-1.16,4.34-5.68,6.42-9.53,6.92-1.17.15-2.32.21-3.43.27a13,13,0,0,0-10.91,4.69c-1,.92-2.08,1.88-3.24,2.74A13.82,13.82,0,0,1,529.43,626.73Z" transform="translate(-105.77 -43.5)"/><path class="cls-1" d="M519.85,593.87a3.53,3.53,0,0,1-2.47-6,44.74,44.74,0,0,1,26.81-12.52,3.53,3.53,0,0,1,.7,7,37.66,37.66,0,0,0-22.57,10.54A3.52,3.52,0,0,1,519.85,593.87Z" transform="translate(-105.77 -43.5)"/><path class="cls-1" d="M491.51,718.37a2.5,2.5,0,0,1-1.68-.65,6.89,6.89,0,0,1-.56-.57,3.4,3.4,0,0,1-2,.17c-3.42-.68-4.15-5.85-4.29-7.42-.39-4.33,1.18-20.68,7.72-27h0a8.46,8.46,0,0,1,7.46-2.49,2.5,2.5,0,0,1,1.95,1.64,4.71,4.71,0,0,1,1.85,0,2.5,2.5,0,0,1,1.12.58,4.43,4.43,0,0,1,3.88,1.52c1.49,2.13.1,4.4-.56,5.5a5.42,5.42,0,0,0-.3.51,66.63,66.63,0,0,0-2.4,9.82l0,.23c-1.5,7.72-1.78,11.54-1.71,12.87a2.5,2.5,0,0,1-1.77,4.15c-1.32.06-2.6.05-3.84,0-1,0-1.92,0-2.87,0a2.5,2.5,0,0,1-1.74,1Zm-2.59-5.64h0Zm1-2.27a2.43,2.43,0,0,1,.38,0,2.5,2.5,0,0,1,2.06,1.9c1.4-.07,2.75-.06,4-.05H497a81.17,81.17,0,0,1,1.79-13l0-.22a71.26,71.26,0,0,1,2.62-10.6,5,5,0,0,1,.23-.54,2.51,2.51,0,0,1-1.52-.41l0,0c-.31.25-.62.48-.92.67a2.5,2.5,0,0,1-3.83-2.3c0-.09,0-.19,0-.29a4.89,4.89,0,0,0-1.19.87h0c-4.59,4.42-6.62,18.44-6.21,22.93a10.75,10.75,0,0,0,.28,1.64A2.5,2.5,0,0,1,489.94,710.45ZM500,712.29h0Z" transform="translate(-105.77 -43.5)"/><path class="cls-1" d="M374,676.5a2.5,2.5,0,0,1-.3-5c52.83-6.38,114.94-14,175.09-21.86a2.5,2.5,0,1,1,.65,5c-60.17,7.9-122.3,15.49-175.14,21.87Z" transform="translate(-105.77 -43.5)"/><path class="cls-1" d="M550.07,654.18a2.5,2.5,0,0,1-1.68-4.35c4.28-3.89,9.64-7.94,14.83-11.86,9.22-7,18.75-14.15,22.48-20.59a2.5,2.5,0,1,1,4.33,2.51c-4.24,7.32-14.18,14.82-23.79,22.08-5.1,3.85-10.37,7.83-14.48,11.57A2.49,2.49,0,0,1,550.07,654.18Z" transform="translate(-105.77 -43.5)"/><path class="cls-1" d="M378.4,692q-2,0-3.93,0a2.5,2.5,0,0,1-2.42-2.2,88.85,88.85,0,0,1-.51-15.92,2.5,2.5,0,1,1,5,.29,83.89,83.89,0,0,0,.24,12.87c12.87.14,25.88-1.39,38.49-2.87,16.89-2,38.15-4.31,58.71-6.56s41.89-4.58,58.8-6.57a2.5,2.5,0,1,1,.58,5c-16.93,2-38.23,4.32-58.83,6.57s-41.8,4.58-58.67,6.55C403.63,690.55,391,692,378.4,692Z" transform="translate(-105.77 -43.5)"/><path class="cls-1" d="M637.74,676a2.5,2.5,0,0,1-2.5-2.5V517.87l-33.42,6.51a2.5,2.5,0,1,1-1-4.91l36.4-7.09a2.5,2.5,0,0,1,3,2.45V673.51A2.5,2.5,0,0,1,637.74,676Z" transform="translate(-105.77 -43.5)"/><path class="cls-1" d="M637.74,645.49a2.5,2.5,0,0,1-.48-5l121.42-24V378.4L641.23,396a2.51,2.51,0,0,1-1.25-.13l-140.5-52.67a2.5,2.5,0,0,1,.53-4.82l101-14.1a2.52,2.52,0,0,1,1.08.08l159.83,48.76h0a2.49,2.49,0,0,1,1.42,1.16h0l0,0h0a2.49,2.49,0,0,1,.26,1.17V618.63a2.5,2.5,0,0,1-2,2.45L638.22,645.45A2.52,2.52,0,0,1,637.74,645.49ZM510.46,341.95l130.67,49,108.74-16.27L601.14,329.29Z" transform="translate(-105.77 -43.5)"/><path class="cls-1" d="M640.86,433a2.5,2.5,0,0,1-2.5-2.5v-37a2.5,2.5,0,0,1,5,0v37A2.5,2.5,0,0,1,640.86,433Z" transform="translate(-105.77 -43.5)"/><path class="cls-1" d="M500.36,393.33a2.5,2.5,0,0,1-2.5-2.5V344a2.5,2.5,0,0,1,5,0v46.83A2.5,2.5,0,0,1,500.36,393.33Z" transform="translate(-105.77 -43.5)"/><path class="cls-1" d="M637.74,517.35a2.51,2.51,0,0,1-2.41-3.21c.7-2.41,15.84-32.87,22.19-45.59l-113,13.94-16.81,30a2.5,2.5,0,1,1-4.36-2.44l17.42-31.1a2.5,2.5,0,0,1,1.88-1.26L661.54,463a2.5,2.5,0,0,1,2.54,3.6c-9.21,18.41-23.18,46.64-23.95,48.94A2.48,2.48,0,0,1,637.74,517.35Z" transform="translate(-105.77 -43.5)"/><path class="cls-1" d="M467.63,512.6a2.49,2.49,0,0,1-.93-.18L398.53,485.2a2.5,2.5,0,0,1-1.13-.9L357,425.58a2.5,2.5,0,0,1,3.05-3.71l120.36,52a2.49,2.49,0,0,1,1.07.87l19.66,28.47a2.5,2.5,0,1,1-4.11,2.84l-19.26-27.88L366,429.91l35.05,50.93,67.48,26.95a2.5,2.5,0,0,1-.93,4.82Z" transform="translate(-105.77 -43.5)"/><path class="cls-1" d="M396.21,500.85a2.5,2.5,0,0,1-2.5-2.5V480.93a2.5,2.5,0,0,1,5,0v17.42A2.5,2.5,0,0,1,396.21,500.85Z" transform="translate(-105.77 -43.5)"/><path class="cls-1" d="M287.51,543a2.47,2.47,0,0,1-.38,0,2.5,2.5,0,0,1-2.11-2.19l-8.71-77L151.94,480.69V522.5a2.5,2.5,0,0,1-5,0v-44a2.5,2.5,0,0,1,2.16-2.48l129.07-17.5a2.5,2.5,0,0,1,2.82,2.2l8,70.3,29.27-66.52a2.5,2.5,0,0,1,3.34-1.26l106.5,49.33a2.5,2.5,0,0,1,1.32,3.06l-3.65,10.88a2.5,2.5,0,1,1-4.74-1.59l2.94-8.76L321.77,468.84l-32,72.67A2.5,2.5,0,0,1,287.51,543Z" transform="translate(-105.77 -43.5)"/><path class="cls-1" d="M256.51,614.13a2.5,2.5,0,0,1-2.47-2.87l10-66.48a2.5,2.5,0,0,1,2.15-2.11L404.9,524.54a2.5,2.5,0,0,1,2.82,2.48v9.9a2.5,2.5,0,0,1-5,0v-7.06l-134,17.53-9.22,61.32,118-16a2.5,2.5,0,0,1,.67,5L256.84,614.11Z" transform="translate(-105.77 -43.5)"/><path class="cls-1" d="M256.51,614.13a2.5,2.5,0,0,1-1.15-.28l-99-51.63a2.5,2.5,0,0,1-1.2-1.37l-13.5-37.5A2.5,2.5,0,0,1,145,520.2l79.5,33.5a2.5,2.5,0,0,1,1.18,1l33,55.63a2.5,2.5,0,0,1-2.15,3.78Zm-97-55.89,90.35,47.12L221.78,558l-73.49-31Z" transform="translate(-105.77 -43.5)"/><path class="cls-1" d="M207.35,551.69a2.5,2.5,0,0,1-.17-5l59.16-4a2.5,2.5,0,0,1,.34,5l-59.16,4Z" transform="translate(-105.77 -43.5)"/><path class="cls-1" d="M252.51,728.5a2.5,2.5,0,0,1-1.38-.42l-97-64.28a2.5,2.5,0,0,1-1.12-2.13L155,560a2.5,2.5,0,0,1,2.5-2.45h.05A2.5,2.5,0,0,1,160,560L158,660.4l95,63,130.14-20.83a2.5,2.5,0,1,1,.79,4.94l-131.1,21A2.56,2.56,0,0,1,252.51,728.5Z" transform="translate(-105.77 -43.5)"/><path class="cls-1" d="M252.51,728.5h-.09a2.5,2.5,0,0,1-2.41-2.58l4-114.37a2.5,2.5,0,0,1,5,.17l-4,114.37A2.5,2.5,0,0,1,252.51,728.5Z" transform="translate(-105.77 -43.5)"/><path class="cls-1" d="M454.71,468a2.5,2.5,0,0,1-.2-5l52.56-4.31-1.75-65.17L383.58,403l5.43,32.6a2.5,2.5,0,0,1-4.93.82l-5.88-35.29a2.5,2.5,0,0,1,2.27-2.9l127.09-9.92a2.5,2.5,0,0,1,2.69,2.43l1.88,70.17a2.5,2.5,0,0,1-2.29,2.56L454.92,468Z" transform="translate(-105.77 -43.5)"/><path class="cls-1" d="M560.41,480.52a2.49,2.49,0,0,1-.79-.13l-50.78-17a2.5,2.5,0,0,1,1.59-4.74l50.78,17a2.5,2.5,0,0,1-.79,4.87Z" transform="translate(-105.77 -43.5)"/><path class="cls-1" d="M645.36,469.64a2.5,2.5,0,0,1-2.17-3.73l15-26.56L538,396.62l-26.32,57.8a2.5,2.5,0,0,1-4.55-2.07l27.28-59.88a2.5,2.5,0,0,1,3.11-1.32l125.14,44.48a2.5,2.5,0,0,1,1.34,3.59l-16.48,29.15A2.5,2.5,0,0,1,645.36,469.64Z" transform="translate(-105.77 -43.5)"/><path class="cls-1" d="M279,468a2.5,2.5,0,0,1-.28-5l95.89-11a2.5,2.5,0,1,1,.57,5L279.3,468Z" transform="translate(-105.77 -43.5)"/><path class="cls-1" d="M200.26,474.11a2.5,2.5,0,0,1-2.5-2.5v-38a2.5,2.5,0,0,1,5,0v38A2.5,2.5,0,0,1,200.26,474.11Z" transform="translate(-105.77 -43.5)"/><path class="cls-1" d="M259,466.15a2.49,2.49,0,0,1-1.14-.27l-58.72-30.05a2.5,2.5,0,0,1,.82-4.71l42.58-5.43a2.53,2.53,0,0,1,1.33.2l44.76,19.9L369,436.54a2.5,2.5,0,1,1,.57,5l-81,9.31a2.5,2.5,0,0,1-1.3-.2l-44.74-19.89-33.87,4.32,51.52,26.37a2.5,2.5,0,0,1-1.14,4.73Z" transform="translate(-105.77 -43.5)"/><path class="cls-1" d="M288.23,450.84a2.5,2.5,0,0,1-2.5-2.43l-3.4-116.85-35.44-6.85L245.34,428.2a2.5,2.5,0,0,1-2.5,2.46h0a2.5,2.5,0,0,1-2.46-2.54l1.59-106.47a2.5,2.5,0,0,1,3-2.42L285.24,327a2.5,2.5,0,0,1,2,2.38l3.46,118.85a2.5,2.5,0,0,1-2.43,2.57Z" transform="translate(-105.77 -43.5)"/><path class="cls-1" d="M408.1,401.12a2.5,2.5,0,0,1-2.5-2.5V320c-12.94.83-77.13,7.39-120.57,12a2.5,2.5,0,0,1-2.61-3.33l14.87-41.24a2.5,2.5,0,0,1,2.17-1.65L418.63,277a2.5,2.5,0,0,1,2.59,3.17L410.6,317.82v80.8A2.5,2.5,0,0,1,408.1,401.12ZM301.44,290.62l-13,36c9.27-1,33.4-3.49,57.35-5.92,17.84-1.81,32.09-3.21,42.37-4.18s15.31-1.42,18-1.52l9.23-32.73Z" transform="translate(-105.77 -43.5)"/><path class="cls-1" d="M357.46,286.49a2.5,2.5,0,0,1-2.35-3.34l11.34-31.79a2.5,2.5,0,0,1,3-1.56l47.09,13.64a2.5,2.5,0,0,1,1.72,3.06l-3.88,14.14a2.5,2.5,0,1,1-4.82-1.32l3.23-11.76-42.46-12.3-10.55,29.58A2.5,2.5,0,0,1,357.46,286.49Z" transform="translate(-105.77 -43.5)"/><path class="cls-1" d="M351.79,286.91a2.5,2.5,0,0,1-2.23-1.37L341,268.81l-94.43,9a2.5,2.5,0,1,1-.47-5l96.12-9.12a2.49,2.49,0,0,1,2.46,1.35L354,283.27a2.5,2.5,0,0,1-2.23,3.63Z" transform="translate(-105.77 -43.5)"/><path class="cls-1" d="M284.76,332a2.5,2.5,0,0,1-2.47-2.12l-6.65-43.51-36.22-10.81,7.47,45.74a2.5,2.5,0,0,1-4.93.81l-8.12-49.69a2.5,2.5,0,0,1,3.18-2.8L278.59,282a2.5,2.5,0,0,1,1.76,2l6.89,45.08a2.5,2.5,0,0,1-2.09,2.85Z" transform="translate(-105.77 -43.5)"/><path class="cls-1" d="M601.34,329.24h-.08a2.5,2.5,0,0,1-2.42-2.58l4.57-142.37-163.65,17.2a2.5,2.5,0,0,1-.52-5L605.75,179a2.5,2.5,0,0,1,2.76,2.57l-4.67,145.24A2.5,2.5,0,0,1,601.34,329.24Z" transform="translate(-105.77 -43.5)"/><path class="cls-1" d="M436.5,398.9h0a2.5,2.5,0,0,1-2.46-2.54l3-195.5-120-35.51V268.83a2.5,2.5,0,0,1-5,0V162a2.5,2.5,0,0,1,3.21-2.4l125.06,37A2.5,2.5,0,0,1,442,199l-3,197.4A2.5,2.5,0,0,1,436.5,398.9Z" transform="translate(-105.77 -43.5)"/><path class="cls-1" d="M439.51,201.5a2.5,2.5,0,0,1-2.08-3.88l41-62a2.5,2.5,0,0,1,1.86-1.11L642.79,120a2.5,2.5,0,0,1,2.34,3.82l-37,59a2.5,2.5,0,0,1-4.24-2.66l34.33-54.73L481.93,139.38l-40.34,61A2.5,2.5,0,0,1,439.51,201.5Z" transform="translate(-105.77 -43.5)"/><path class="cls-1" d="M403.51,157.5a2.5,2.5,0,0,1-.17-5l66.33-4.57,21.4-97.47a2.5,2.5,0,0,1,3.05-1.89l134.5,34a2.5,2.5,0,0,1,1.76,3.2l-13,40a2.5,2.5,0,1,1-4.75-1.55L624.8,86.77,495.4,54.06l-21.25,96.78a2.5,2.5,0,0,1-2.27,2l-68.2,4.7Z" transform="translate(-105.77 -43.5)"/><path class="cls-1" d="M436.62,200.64a2.5,2.5,0,0,1-1.94-.92l-54.58-67L267.65,104.37l48.68,56a2.5,2.5,0,1,1-3.77,3.28l-53.91-62a2.5,2.5,0,0,1,2.5-4.06l121,30.5a2.51,2.51,0,0,1,1.33.85l55.11,67.64a2.5,2.5,0,0,1-1.94,4.08Z" transform="translate(-105.77 -43.5)"/><path class="cls-1" d="M468.33,151.57a2.5,2.5,0,0,1-2.14-1.2L425.66,83.6,280.58,93.76l3.26,8.33a2.5,2.5,0,1,1-4.66,1.82l-4.5-11.5A2.5,2.5,0,0,1,276.83,89l150-10.5a2.51,2.51,0,0,1,2.31,1.2l41.32,68.07a2.5,2.5,0,0,1-2.13,3.8Z" transform="translate(-105.77 -43.5)"/><path class="cls-1" d="M522.51,687.33a2.5,2.5,0,0,1-2-4,77.06,77.06,0,0,1,20-18.5c2.69-1.64,26.72-16.06,40.51-16.42h.07a2.5,2.5,0,0,1,.07,5c-10.15.27-28.69,10-38,15.69a71.62,71.62,0,0,0-18.59,17.2A2.5,2.5,0,0,1,522.51,687.33Z" transform="translate(-105.77 -43.5)"/><path class="cls-1" d="M540.51,669.67a2.5,2.5,0,0,1-2-4,33.69,33.69,0,0,0,2.67-5.27c1.9-4.25,3.69-8.26,6.47-9.77A2.5,2.5,0,0,1,550,655c-1.29.7-3.09,4.74-4.29,7.41a35.3,35.3,0,0,1-3.23,6.22A2.5,2.5,0,0,1,540.51,669.67Z" transform="translate(-105.77 -43.5)"/><path class="cls-1" d="M558.51,659.67a2.49,2.49,0,0,1-1.23-.33c-.71-.4-1.68-.83-2.71-1.29-2.24-1-4.78-2.11-6.47-3.76a2.5,2.5,0,1,1,3.49-3.58,19.25,19.25,0,0,0,5,2.77c1.14.5,2.22,1,3.15,1.51a2.5,2.5,0,0,1-1.23,4.67Z" transform="translate(-105.77 -43.5)"/><path class="cls-1" d="M484.51,715c-.87,0-1.8,0-2.85-.08-5.32-.27-26.21-3.31-31.25-13.33-1.28-2.54-2.08-6.67,1.4-11.88,6-8.94,19.6-7.5,30.55-6.35,3.06.32,5.94.63,8.15.63a2.5,2.5,0,0,1,0,5c-2.47,0-5.48-.32-8.67-.65-9.62-1-21.58-2.28-25.87,4.15-1.74,2.61-2.1,4.85-1.09,6.85,3.33,6.61,19.51,10.2,27,10.58,1,0,1.82.07,2.6.07a2.5,2.5,0,0,1,0,5Z" transform="translate(-105.77 -43.5)"/><path class="cls-1" d="M593,628a2.5,2.5,0,0,1-2.32-1.57,19.54,19.54,0,0,0-4-5.67,2.5,2.5,0,0,1,3.54-3.53,24.33,24.33,0,0,1,5,7.33A2.5,2.5,0,0,1,593,628Z" transform="translate(-105.77 -43.5)"/><path class="cls-1" d="M572.5,655a2.61,2.61,0,0,1-.7-.1,2.54,2.54,0,0,1-1.71-3.13c.92-3.26,15-19.9,15.16-20.06a25.2,25.2,0,0,0,2.06-3,22,22,0,0,1,3.52-4.63,2.5,2.5,0,0,1,3.38,3.69,18.24,18.24,0,0,0-2.66,3.61A29.11,29.11,0,0,1,589,635c-3.08,3.56-13.32,16.19-14.16,18.23A2.44,2.44,0,0,1,572.5,655Z" transform="translate(-105.77 -43.5)"/><path class="cls-1" d="M614.19,654a2.49,2.49,0,0,1-.67-.09c-3.05-.85-4.95-3.27-6.78-5.6-1.67-2.13-3.25-4.14-5.5-4.68a32.78,32.78,0,0,0-4.7.14c-6.27.42-10.21.53-12.15-1.51a3.61,3.61,0,0,1-1-3,2.49,2.49,0,0,1,.64-1.4,2.39,2.39,0,0,1,.14-.65c1.66-4.44,6-7.31,12-7.88h0a23.37,23.37,0,0,1,9.1.94,18.94,18.94,0,0,1,11.2,10.37,14.19,14.19,0,0,1,0,11.89A2.5,2.5,0,0,1,614.19,654Zm-13.86-15.42a9.08,9.08,0,0,1,2.07.19c3.95.94,6.25,3.87,8.27,6.46a29.17,29.17,0,0,0,2,2.43,10.16,10.16,0,0,0-.84-5,14,14,0,0,0-8.15-7.58,18.26,18.26,0,0,0-7.08-.72h0a11,11,0,0,0-6.19,2.33,2.58,2.58,0,0,1,.36.61,2.45,2.45,0,0,1,.05,1.71h0c1.82,0,4-.14,5.32-.23C597.94,638.62,599.27,638.54,600.33,638.54Zm-3.91-6.71h0Z" transform="translate(-105.77 -43.5)"/><path class="cls-1" d="M590.08,663.44a11.54,11.54,0,0,1-8.33-3.41,8.64,8.64,0,0,1-2.31-6.88c.26-4.44,2.92-9.72,6.2-12.28a2.5,2.5,0,0,1,3.08,3.94,13.56,13.56,0,0,0-4.29,8.63,4,4,0,0,0,.84,3c4.68,4.63,11.85,0,14.71-2.27,1.12-.87,2.2-1.82,3.34-2.84a53.86,53.86,0,0,1,4.76-3.91,2.5,2.5,0,1,1,2.87,4.1,49.44,49.44,0,0,0-4.31,3.56c-1.15,1-2.34,2.08-3.59,3C598.52,661.66,594.05,663.44,590.08,663.44Z" transform="translate(-105.77 -43.5)"/><path class="cls-1" d="M608.54,636a2.49,2.49,0,0,1-1.28-.35c-3.93-2.35-12.45-5.87-15.18-5.62a2.5,2.5,0,0,1-.48-5c5-.49,15.66,4.78,18.23,6.31a2.5,2.5,0,0,1-1.29,4.65Z" transform="translate(-105.77 -43.5)"/><path class="cls-1" d="M545.57,631.36h-.23c-3.13-.2-4.86-3.22-6.24-5.64a11.71,11.71,0,0,0-1.85-2.72,2.5,2.5,0,0,1,2.52-4.32c1.6.94,2.65,2.77,3.67,4.55a13.1,13.1,0,0,0,2.12,3.07,20.3,20.3,0,0,0,2-1.2,15.74,15.74,0,0,1,1.92-1.13,34.39,34.39,0,0,1,3.19-1.28c-.36-.67-.75-1.35-1.17-2a24.07,24.07,0,0,1-2.75-5.82,2.5,2.5,0,0,1,4.82-1.31,20.12,20.12,0,0,0,2.23,4.59,25.17,25.17,0,0,1,2.71,5.64,2.5,2.5,0,0,1-2.16,3.19,17.73,17.73,0,0,0-4.84,1.59c-.21.1-.81.48-1.25.76C548.38,630.53,547,631.36,545.57,631.36Z" transform="translate(-105.77 -43.5)"/></g><g id="circle"><g class="cls-12"><path class="cls-7" d="M412.3,590.85c.19-10.39,3.77-19.35,12-29.06C429,556.25,438.5,551,445.2,548.55c18-6.67,41.77-3.38,57.05,8.54,11.26,8.79,14.51,22.08,17.45,35.46,5.89,26.81-10.08,50.17-36.51,57.08-25.62,6.69-54-2.76-64.83-28.2-2-4.68-3.14-9.87-4.31-15.2A66.21,66.21,0,0,1,412.3,590.85Z" transform="translate(-105.77 -43.5)"/></g><g class="cls-12"><path class="cls-7" d="M539.3,549.54a47.78,47.78,0,0,1,6.72-27.9c3-5.17,9.47-9.71,14.09-11.74,12.44-5.44,29.58-.7,41.23,12,8.59,9.38,11.74,22.69,14.68,36.07,3.29,15,2.67,28.79-3.74,40-6.27,11-15.81,12.29-26.17,13.33-7.79.78-15.93,1.62-23.52-4.77-8-6.75-12.87-15-17-26.51a122.75,122.75,0,0,1-4-15.26A93.72,93.72,0,0,1,539.3,549.54Z" transform="translate(-105.77 -43.5)"/></g><path class="cls-1" d="M467.07,655.25a61.92,61.92,0,0,1-23.16-4.39,51.53,51.53,0,0,1-28.79-28c-2.13-5-3.34-10.51-4.51-15.82a69.67,69.67,0,0,1-1.84-16.21h0c.2-11.39,4.16-21,12.81-31.27,5.09-6,14.91-11.5,22.39-14.27,19.5-7.21,44.36-3.48,60.45,9.07,12.67,9.89,16,25.19,18.73,37.49,6.14,28-10.29,53.73-39.07,61.25A67.41,67.41,0,0,1,467.07,655.25Zm-2-106.55a54.06,54.06,0,0,0-18.65,3.16c-6.6,2.45-15.41,7.42-19.45,12.21-7.54,8.91-11,17.19-11.15,26.84h0a62.8,62.8,0,0,0,1.68,14.57c1.1,5,2.23,10.16,4.11,14.57,10.56,24.83,38.53,32,60.69,26.17,25.38-6.63,39.34-28.39,34-52.91-3.12-14.23-6.3-25.72-16.18-33.44C490.8,552.63,477.77,548.7,465.08,548.7ZM412.3,590.85h0Z" transform="translate(-105.77 -43.5)"/><path class="cls-1" d="M578.15,615.43c-5.87,0-12-1.19-17.83-6.13-8-6.76-13.43-15.13-18.08-28a126.1,126.1,0,0,1-4.16-15.7,97.31,97.31,0,0,1-2.3-15.87A51.14,51.14,0,0,1,543,519.87c3.39-5.84,10.34-10.84,15.73-13.2,14.07-6.15,32.68-.86,45.25,12.87,9.54,10.41,12.86,25.54,15.52,37.7,3.71,16.92,2.33,31.23-4.12,42.55-7.37,12.93-19.3,14.13-28.88,15.1A82.79,82.79,0,0,1,578.15,615.43Zm-7-104.21a24,24,0,0,0-9.66,1.92c-4.33,1.9-10,6-12.45,10.27a44.47,44.47,0,0,0-6.25,26h0A90.27,90.27,0,0,0,545,564.08a121,121,0,0,0,3.9,14.81c4.26,11.78,8.89,19,16,25,6.42,5.41,13.41,4.71,20.81,4,10.88-1.09,18.35-2.49,23.53-11.58,5.56-9.75,6.69-22.39,3.36-37.54-3.16-14.41-6.19-26.09-13.84-34.44S580.64,511.22,571.19,511.22Z" transform="translate(-105.77 -43.5)"/><path class="cls-1" d="M519.85,593.87a3.53,3.53,0,0,1-2.47-6,44.74,44.74,0,0,1,26.81-12.52,3.53,3.53,0,0,1,.7,7,37.66,37.66,0,0,0-22.57,10.54A3.52,3.52,0,0,1,519.85,593.87Z" transform="translate(-105.77 -43.5)"/><g class="cls-12"><path class="cls-7" d="M594.18,528.83c-2.91-2.27-6.89-1-6.33,3,.48,3.5,3.92,7.78,5.33,11.35,1.52,3.85,1.69,9.59,4.15,12.83,6.11,8,5.64-6.3,4.59-9.76C600,539.94,598.74,534.06,594.18,528.83Z" transform="translate(-105.77 -43.5)"/></g><g class="cls-12"><path class="cls-7" d="M496.84,563.83c-1-3.57-9.51-2.83-8.77,1.67.41,2.44,3.62,5.41,4.9,7.54a40.24,40.24,0,0,1,4.21,9.12c1.7,5.77-.86,14.73,3.3,19.67,3.29,3.9,6.35,1.12,6.68-2.86.42-5.1-.18-10.25-.7-15.28C505.86,577.61,503,567.14,496.84,563.83Z" transform="translate(-105.77 -43.5)"/></g></g><g id="layers"><path class="cls-1" d="M468.33,880.06a357.61,357.61,0,0,1-159.8-677.52,3.53,3.53,0,1,1,3.16,6.31c-119.58,59.84-193.86,180-193.86,313.64C117.82,715.77,275.06,873,468.33,873S818.84,715.77,818.84,522.5a350,350,0,0,0-214.08-323,3.53,3.53,0,0,1,2.75-6.5,357.56,357.56,0,0,1-139.18,687Z" transform="translate(-105.77 -43.5)"/></g></svg>